<svg width="384" height="489" viewBox="0 0 384 489" fill="none" xmlns="http://www.w3.org/2000/svg">
<path d="M294 227.57C297.314 227.57 300 230.257 300 233.57V234.84C300 239.018 304.175 241.918 308.235 240.93C322.434 237.473 337.419 238.554 351.752 247.035C378.909 263.105 386.462 295.541 382.119 325.118C377.7 355.213 360.729 386.958 332.479 407.604C308.711 424.973 284.625 429.568 264.995 429.253C263.197 429.224 261.471 429.958 260.251 431.279C252.779 439.375 244.425 446.645 235.344 452.939C232.952 454.597 234.09 458.57 237 458.57C245.284 458.57 252 465.286 252 473.57C252 481.855 245.284 488.57 237 488.57H60C51.7157 488.57 45 481.855 45 473.57C45 465.286 51.7157 458.57 60 458.57C63.748 458.57 65.2441 453.402 62.207 451.206C24.5216 423.958 0 379.628 0 329.57V233.57C0 230.257 2.68629 227.57 6 227.57H294ZM336.474 272.854C326.688 267.063 314.753 267.744 300.056 276.678C300.021 276.699 300 276.737 300 276.777V329.57C300 349.528 296.101 368.575 289.024 385.992C287.122 390.674 291.145 395.67 295.853 393.833C302.084 391.4 308.447 388.008 314.777 383.382C336.026 367.854 349.091 343.538 352.437 320.759C355.858 297.462 348.904 280.209 336.474 272.854Z" fill="url(#paint0_linear_188_25995)"/>
<path d="M294 227.57C297.314 227.57 300 230.257 300 233.57V234.84C300 239.018 304.175 241.918 308.235 240.93C322.434 237.473 337.419 238.554 351.752 247.035C378.909 263.105 386.462 295.541 382.119 325.118C377.7 355.213 360.729 386.958 332.479 407.604C308.711 424.973 284.625 429.568 264.995 429.253C263.197 429.224 261.471 429.958 260.251 431.279C252.779 439.375 244.425 446.645 235.344 452.939C232.952 454.597 234.09 458.57 237 458.57C245.284 458.57 252 465.286 252 473.57C252 481.855 245.284 488.57 237 488.57H60C51.7157 488.57 45 481.855 45 473.57C45 465.286 51.7157 458.57 60 458.57C63.748 458.57 65.2441 453.402 62.207 451.206C24.5216 423.958 0 379.628 0 329.57V233.57C0 230.257 2.68629 227.57 6 227.57H294ZM336.474 272.854C326.688 267.063 314.753 267.744 300.056 276.678C300.021 276.699 300 276.737 300 276.777V329.57C300 349.528 296.101 368.575 289.024 385.992C287.122 390.674 291.145 395.67 295.853 393.833C302.084 391.4 308.447 388.008 314.777 383.382C336.026 367.854 349.091 343.538 352.437 320.759C355.858 297.462 348.904 280.209 336.474 272.854Z" fill="url(#paint1_linear_188_25995)"/>
<circle opacity="0.2" cx="207" cy="299.57" r="42" fill="#192626"/>
<circle opacity="0.2" cx="81" cy="296.57" r="42" fill="#192626"/>
<circle cx="113.482" cy="259.419" r="9" transform="rotate(-19.4356 113.482 259.419)" fill="#0BB57F"/>
<circle cx="176.482" cy="259.419" r="9" transform="rotate(-19.4356 176.482 259.419)" fill="#0BB57F"/>
<path d="M132 302.782L176.492 282.546" stroke="#0BB57F" stroke-width="6.8388" stroke-linecap="round"/>
<g opacity="0.5">
<path d="M203.252 79.7536C209.501 75.8743 223.783 72.5725 230.911 90.4C239.823 112.684 201.292 153.738 199.329 174.454" stroke="#0BB57F" stroke-width="6.93375" stroke-linecap="round"/>
<rect x="186.836" y="164.808" width="28.7827" height="38.8567" rx="4.05553" transform="rotate(14.6427 186.836 164.808)" fill="#007351"/>
<path d="M163.632 55.4661C166.419 52.0914 171.381 51.536 174.844 54.211L218.604 88.0047C222.041 90.6589 222.777 95.549 220.275 99.0981L160.044 184.529C157.383 188.303 152.112 189.098 148.457 186.275L98.4011 147.619C94.7736 144.817 94.186 139.569 97.1043 136.034L163.632 55.4661Z" fill="url(#paint2_linear_188_25995)"/>
</g>
<path fill-rule="evenodd" clip-rule="evenodd" d="M188.606 125.646C184.463 128.039 184.463 134.019 188.606 136.411L253.483 173.868C256.455 175.585 257.474 179.386 255.758 182.358L254.641 184.292C252.925 187.265 249.124 188.283 246.151 186.567L167.728 141.288C165.805 140.178 163.436 140.178 161.513 141.288L83.7721 186.172C80.7994 187.888 76.9982 186.87 75.2819 183.897L74.6227 182.755C72.9064 179.783 73.9249 175.981 76.8976 174.265L141.549 136.939C145.692 134.547 145.692 128.566 141.549 126.174L76.6657 88.7139C73.6931 86.9976 72.6746 83.1966 74.3907 80.2239L75.5069 78.2904C77.2231 75.3175 81.0244 74.2989 83.9971 76.0152L162.427 121.296C164.35 122.407 166.719 122.407 168.642 121.296L246.382 76.4131C249.355 74.6968 253.156 75.7153 254.873 78.688L255.532 79.8299C257.248 82.8026 256.23 86.6038 253.257 88.3201L188.606 125.646Z" fill="#0BB57F"/>
<defs>
<linearGradient id="paint0_linear_188_25995" x1="191.251" y1="227.57" x2="191.251" y2="488.57" gradientUnits="userSpaceOnUse">
<stop stop-color="#101113"/>
<stop offset="1" stop-color="#0A5F44"/>
</linearGradient>
<linearGradient id="paint1_linear_188_25995" x1="191.251" y1="227.57" x2="191.251" y2="488.57" gradientUnits="userSpaceOnUse">
<stop stop-color="#0A5F44"/>
<stop offset="1" stop-color="#223E35"/>
</linearGradient>
<linearGradient id="paint2_linear_188_25995" x1="197.21" y1="71.4832" x2="123.465" y2="166.975" gradientUnits="userSpaceOnUse">
<stop stop-color="#0BB57F"/>
<stop offset="1" stop-color="#054F38"/>
</linearGradient>
</defs>
</svg>
