<svg width="97" height="23" viewBox="0 0 97 23" fill="none" xmlns="http://www.w3.org/2000/svg">
<path d="M0 3.25369V0H13.6566V3.25369H8.67651V19.9206H4.98014V3.25369H0Z" fill="#0BB57F"/>
<path d="M20.3411 20.319C18.8803 20.319 17.5817 20.0091 16.4455 19.3893C15.3241 18.7696 14.4461 17.9211 13.8116 16.8439C13.1918 15.752 12.882 14.5199 12.882 13.1476C12.882 11.8343 13.1845 10.6612 13.7894 9.62827C14.4092 8.58059 15.2429 7.75426 16.2906 7.14926C17.3383 6.54427 18.4966 6.24177 19.7656 6.24177C21.0641 6.24177 22.2225 6.54427 23.2406 7.14926C24.2736 7.7395 25.0925 8.5437 25.6975 9.56186C26.3025 10.58 26.605 11.7384 26.605 13.0369V14.2985H18.349C17.9801 14.2985 17.6186 14.2764 17.2645 14.2321C16.9103 14.1879 16.5562 14.1362 16.202 14.0772C16.3791 15.0363 16.8439 15.8258 17.5965 16.4455C18.349 17.0653 19.2934 17.3751 20.4296 17.3751C21.2707 17.3751 22.0307 17.1981 22.7094 16.8439C23.3882 16.4898 23.9489 16.0471 24.3916 15.5159L25.1884 18.7696C24.5244 19.286 23.7792 19.6697 22.9529 19.9206C22.1266 20.1862 21.256 20.319 20.3411 20.319ZM16.1135 11.9302C16.8661 11.7826 17.6112 11.7089 18.349 11.7089H21.2043C21.6027 11.7089 21.979 11.7236 22.3332 11.7531C22.6873 11.7826 23.0267 11.8269 23.3513 11.8859C23.13 11.0301 22.6947 10.3439 22.0454 9.82747C21.4109 9.31101 20.6436 9.05278 19.7435 9.05278C18.8581 9.05278 18.0908 9.31839 17.4415 9.84961C16.7923 10.3808 16.3496 11.0744 16.1135 11.9302Z" fill="#0BB57F"/>
<path d="M33.1055 20.319C32.2644 20.319 31.4011 20.1788 30.5158 19.8984C29.6304 19.6033 28.9221 19.1901 28.3909 18.6589L29.2763 15.2946C29.7042 15.9143 30.2797 16.4455 31.0027 16.8882C31.7405 17.3161 32.5005 17.5301 33.2825 17.5301C33.8728 17.5301 34.3007 17.412 34.5663 17.1759C34.8467 16.9251 34.9869 16.6226 34.9869 16.2685C34.9869 15.87 34.8467 15.5823 34.5663 15.4052C34.2859 15.2134 34.0056 15.0658 33.7252 14.9625L31.8881 14.2764C31.5044 14.1141 31.0544 13.9001 30.5379 13.6345C30.0215 13.3541 29.5714 12.9631 29.1878 12.4614C28.8189 11.945 28.6344 11.2736 28.6344 10.4472C28.6344 9.69467 28.8189 9.00114 29.1878 8.36663C29.5567 7.73212 30.0879 7.22304 30.7814 6.83939C31.4897 6.44098 32.3382 6.24177 33.3268 6.24177C34.2122 6.24177 35.0533 6.39671 35.8501 6.70659C36.6617 7.0017 37.274 7.3706 37.6872 7.81328L36.8682 11.0891C36.396 10.4398 35.8279 9.93814 35.1639 9.584C34.4999 9.2151 33.858 9.03065 33.2383 9.03065C32.7218 9.03065 32.3382 9.1487 32.0873 9.38479C31.8365 9.60613 31.711 9.87174 31.711 10.1816C31.711 10.4177 31.7996 10.6391 31.9766 10.8456C32.1537 11.0522 32.4414 11.2293 32.8399 11.3768L34.5663 12.0409C35.0237 12.2032 35.5254 12.4319 36.0714 12.727C36.6174 13.0074 37.0822 13.4058 37.4659 13.9223C37.8643 14.4387 38.0635 15.147 38.0635 16.0471C38.0635 17.3161 37.5987 18.349 36.669 19.1459C35.7542 19.9279 34.5663 20.319 33.1055 20.319Z" fill="#0BB57F"/>
<path d="M42.1479 19.9206V9.42906H39.5361V6.64018H42.2143V2.21339H45.5565V6.64018H48.3454V9.42906H45.6229V19.9206H42.1479Z" fill="#0BB57F"/>
<path d="M56.6339 20.319C55.173 20.319 53.8745 20.0091 52.7383 19.3893C51.6168 18.7696 50.7388 17.9211 50.1043 16.8439C49.4846 15.752 49.1747 14.5199 49.1747 13.1476C49.1747 11.8343 49.4772 10.6612 50.0822 9.62827C50.702 8.58059 51.5357 7.75426 52.5833 7.14926C53.631 6.54427 54.7894 6.24177 56.0584 6.24177C57.3569 6.24177 58.5152 6.54427 59.5334 7.14926C60.5663 7.7395 61.3853 8.5437 61.9903 9.56186C62.5953 10.58 62.8978 11.7384 62.8978 13.0369V14.2985H54.6418C54.2729 14.2985 53.9114 14.2764 53.5572 14.2321C53.2031 14.1879 52.8489 14.1362 52.4948 14.0772C52.6719 15.0363 53.1367 15.8258 53.8892 16.4455C54.6418 17.0653 55.5862 17.3751 56.7224 17.3751C57.5635 17.3751 58.3234 17.1981 59.0022 16.8439C59.681 16.4898 60.2417 16.0471 60.6844 15.5159L61.4812 18.7696C60.8172 19.286 60.072 19.6697 59.2457 19.9206C58.4193 20.1862 57.5487 20.319 56.6339 20.319ZM52.4063 11.9302C53.1588 11.7826 53.904 11.7089 54.6418 11.7089H57.4971C57.8955 11.7089 58.2718 11.7236 58.6259 11.7531C58.98 11.7826 59.3194 11.8269 59.6441 11.8859C59.4227 11.0301 58.9874 10.3439 58.3382 9.82747C57.7037 9.31101 56.9363 9.05278 56.0362 9.05278C55.1509 9.05278 54.3836 9.31839 53.7343 9.84961C53.085 10.3808 52.6424 11.0744 52.4063 11.9302Z" fill="#0BB57F"/>
<path d="M71.1689 20.2304C69.9589 20.2304 68.8522 19.9206 67.8488 19.3008C66.8454 18.6663 66.0412 17.8252 65.4362 16.7775C64.846 15.7151 64.5509 14.5494 64.5509 13.2804C64.5509 12.0114 64.846 10.853 65.4362 9.80534C66.0412 8.74291 66.8454 7.90182 67.8488 7.28207C68.8522 6.64756 69.9589 6.33031 71.1689 6.33031C72.0395 6.33031 72.8437 6.48525 73.5815 6.79512C74.3193 7.105 74.9465 7.5403 75.4629 8.10102V6.64018H78.4953V19.9206H75.4629V18.4597C74.9465 19.0057 74.3193 19.441 73.5815 19.7656C72.8437 20.0755 72.0395 20.2304 71.1689 20.2304ZM71.5895 17.1538C72.2978 17.1538 72.9323 16.9767 73.493 16.6226C74.0685 16.2685 74.5259 15.8036 74.8653 15.2282C75.2047 14.6379 75.3744 13.9887 75.3744 13.2804C75.3744 12.5721 75.2047 11.9302 74.8653 11.3547C74.5259 10.7645 74.0685 10.2923 73.493 9.93814C72.9323 9.584 72.3051 9.40693 71.6116 9.40693C70.9033 9.40693 70.2614 9.584 69.686 9.93814C69.1252 10.2923 68.6752 10.7645 68.3358 11.3547C67.9964 11.9302 67.8267 12.5721 67.8267 13.2804C67.8267 13.9887 67.9964 14.6379 68.3358 15.2282C68.6752 15.8036 69.1252 16.2685 69.686 16.6226C70.2614 16.9767 70.896 17.1538 71.5895 17.1538Z" fill="#0BB57F"/>
<path d="M80.7397 19.4543C79.8763 16.2192 80.711 12.6253 83.2488 10.0874C85.7865 7.54961 90.2285 5.8675 93.4634 6.73054C94.3265 9.96551 92.6444 14.4074 90.1066 16.9452C87.5862 19.4655 84.0244 20.3059 80.8068 19.4717C81.8395 18.9021 82.9324 18.0787 83.9622 17.0488C85.0028 16.0082 85.8324 14.9032 86.4026 13.861C85.3604 14.4312 84.2554 15.2608 83.2148 16.3013C82.1816 17.3345 81.3575 18.4319 80.7877 19.4676C80.7716 19.4634 80.7557 19.4586 80.7397 19.4543Z" fill="#0BB57F"/>
</svg>
