<svg width="38" height="38" viewBox="0 0 38 38" fill="none" xmlns="http://www.w3.org/2000/svg">
<path d="M36.8127 34.3342L34.3342 36.8127C34.1165 37.0312 33.8577 37.2046 33.5729 37.3229C33.288 37.4412 32.9825 37.5021 32.6741 37.5021C32.3656 37.5021 32.0602 37.4412 31.7753 37.3229C31.4904 37.2046 31.2317 37.0312 31.0139 36.8127L19.9651 25.7639L16.2092 35.5608L16.1838 35.6252C15.9444 36.1829 15.5461 36.6579 15.0388 36.9909C14.5314 37.3239 13.9372 37.5004 13.3303 37.4983H13.178C12.5452 37.4718 11.9359 37.2515 11.4325 36.8672C10.9291 36.4829 10.5559 35.9532 10.3635 35.3498L0.154533 4.08422C-0.024521 3.53713 -0.0484851 2.95112 0.0852996 2.39123C0.219084 1.83135 0.505386 1.31948 0.912431 0.912431C1.31948 0.505386 1.83135 0.219084 2.39123 0.0852996C2.95112 -0.0484851 3.53713 -0.024521 4.08422 0.154533L35.3498 10.3635C35.9474 10.5634 36.4706 10.9393 36.8507 11.4418C37.2308 11.9443 37.4502 12.55 37.48 13.1794C37.5098 13.8088 37.3486 14.4325 37.0176 14.9687C36.6866 15.5048 36.2012 15.9284 35.6252 16.1838L35.5608 16.2092L25.7639 19.9729L36.8127 31.0198C37.2522 31.4593 37.4991 32.0554 37.4991 32.677C37.4991 33.2986 37.2522 33.8947 36.8127 34.3342Z" fill="#0BB57F"/>
</svg>
