<svg width="458" height="483" viewBox="0 0 458 483" fill="none" xmlns="http://www.w3.org/2000/svg">
<path d="M294 221.633C297.314 221.633 300 224.319 300 227.633V228.902C300 233.081 304.175 235.98 308.235 234.992C322.434 231.536 337.419 232.616 351.752 241.098C378.909 257.168 386.462 289.603 382.119 319.181C377.7 349.276 360.729 381.021 332.479 401.666C308.711 419.035 284.625 423.63 264.995 423.315C263.197 423.287 261.471 424.02 260.251 425.342C252.779 433.438 244.425 440.708 235.344 447.002C232.952 448.66 234.09 452.633 237 452.633C245.284 452.633 252 459.349 252 467.633C252 475.917 245.284 482.633 237 482.633H60C51.7157 482.633 45 475.917 45 467.633C45 459.349 51.7157 452.633 60 452.633C63.748 452.633 65.2441 447.465 62.207 445.269C24.5216 418.021 0 373.691 0 323.633V227.633C0 224.319 2.68629 221.633 6 221.633H294ZM336.474 266.916C326.688 261.126 314.753 261.807 300.056 270.74C300.021 270.761 300 270.799 300 270.84V323.633C300 343.591 296.101 362.638 289.024 380.055C287.122 384.736 291.145 389.733 295.853 387.896C302.084 385.463 308.447 382.07 314.777 377.444C336.026 361.916 349.091 337.6 352.437 314.821C355.858 291.525 348.904 274.271 336.474 266.916Z" fill="url(#paint0_linear_280_2749)"/>
<path d="M294 221.633C297.314 221.633 300 224.319 300 227.633V228.902C300 233.081 304.175 235.98 308.235 234.992C322.434 231.536 337.419 232.616 351.752 241.098C378.909 257.168 386.462 289.603 382.119 319.181C377.7 349.276 360.729 381.021 332.479 401.666C308.711 419.035 284.625 423.63 264.995 423.315C263.197 423.287 261.471 424.02 260.251 425.342C252.779 433.438 244.425 440.708 235.344 447.002C232.952 448.66 234.09 452.633 237 452.633C245.284 452.633 252 459.349 252 467.633C252 475.917 245.284 482.633 237 482.633H60C51.7157 482.633 45 475.917 45 467.633C45 459.349 51.7157 452.633 60 452.633C63.748 452.633 65.2441 447.465 62.207 445.269C24.5216 418.021 0 373.691 0 323.633V227.633C0 224.319 2.68629 221.633 6 221.633H294ZM336.474 266.916C326.688 261.126 314.753 261.807 300.056 270.74C300.021 270.761 300 270.799 300 270.84V323.633C300 343.591 296.101 362.638 289.024 380.055C287.122 384.736 291.145 389.733 295.853 387.896C302.084 385.463 308.447 382.07 314.777 377.444C336.026 361.916 349.091 337.6 352.437 314.821C355.858 291.525 348.904 274.271 336.474 266.916Z" fill="url(#paint1_linear_280_2749)"/>
<circle opacity="0.2" cx="207" cy="293.633" r="42" fill="#192626"/>
<circle opacity="0.2" cx="81" cy="290.633" r="42" fill="#192626"/>
<circle cx="113.482" cy="253.482" r="9" transform="rotate(-19.4356 113.482 253.482)" fill="#0BB57F"/>
<circle cx="176.482" cy="253.482" r="9" transform="rotate(-19.4356 176.482 253.482)" fill="#0BB57F"/>
<path d="M132 296.845L176.492 276.609" stroke="#0BB57F" stroke-width="6.8388" stroke-linecap="round"/>
<path d="M366 3C385.381 3 401.832 15.5308 407.7 32.932C408.344 34.8431 410.194 36.1183 412.209 36.0364C412.803 36.0123 413.4 36 414 36C438.301 36 458 55.6995 458 80C458 102.89 440.521 121.693 418.182 123.799C418.078 123.809 418 123.896 418 124C418 150.51 396.51 172 370 172C356.033 172 343.461 166.033 334.689 156.511C333.335 155.041 331.148 154.641 329.354 155.522C323.513 158.388 316.945 160 310 160C285.699 160 266 140.301 266 116C266 105.504 269.675 95.8664 275.809 88.3038C277.047 86.7771 277.161 84.6015 276.09 82.9537C271.606 76.0609 269 67.8354 269 59C269 34.6995 288.699 15 313 15C318.638 15 324.027 16.0615 328.981 17.9941C330.699 18.664 332.668 18.2198 333.931 16.8764C341.957 8.33518 353.355 3 366 3Z" fill="#0BB57F" fill-opacity="0.1"/>
<g opacity="0.5">
<path d="M376.758 53.0629C380.522 49.9008 389.654 46.3548 396.069 57.4671C404.089 71.3575 382.518 102.187 383.195 116.078" stroke="#0BB57F" stroke-width="4.63384" stroke-linecap="round"/>
<rect x="374.011" y="110.889" width="19.2356" height="25.968" rx="2.71032" transform="rotate(6.43831 374.011 110.889)" fill="#007351"/>
<path d="M348.235 40.7762C349.757 38.2781 352.985 37.4376 355.532 38.8767L387.7 57.0566C390.226 58.4845 391.18 61.6489 389.863 64.2351L358.17 126.489C356.77 129.239 353.359 130.267 350.672 128.749L313.876 107.953C311.209 106.446 310.32 103.03 311.913 100.414L348.235 40.7762Z" fill="url(#paint2_linear_280_2749)"/>
</g>
<circle cx="236" cy="140" r="14" fill="#0BB57F" fill-opacity="0.1"/>
<circle cx="207" cy="177" r="8" fill="#0BB57F" fill-opacity="0.1"/>
<path fill-rule="evenodd" clip-rule="evenodd" d="M378.795 82.3603C376.128 83.8999 376.128 87.7489 378.795 89.2885L415.652 110.568C417.565 111.673 418.22 114.119 417.116 116.032L413.327 122.593C412.223 124.506 409.777 125.161 407.863 124.057L359.219 95.9718C357.982 95.2573 356.457 95.2573 355.219 95.9718L306.574 124.057C304.661 125.161 302.215 124.506 301.11 122.593L297.322 116.032C296.218 114.118 296.873 111.672 298.786 110.567L335.643 89.2884C338.309 87.7488 338.309 83.8998 335.643 82.3602L298.786 61.0813C296.873 59.9767 296.218 57.5304 297.322 55.6172L301.11 49.0561C302.215 47.1429 304.661 46.4874 306.574 47.592L355.219 75.6765C356.457 76.391 357.982 76.391 359.219 75.6765L407.863 47.5919C409.776 46.4873 412.223 47.1428 413.327 49.056L417.115 55.6171C418.22 57.5303 417.565 59.9767 415.651 61.0812L378.795 82.3603Z" fill="#0BB57F"/>
<defs>
<linearGradient id="paint0_linear_280_2749" x1="191.251" y1="221.633" x2="191.251" y2="482.633" gradientUnits="userSpaceOnUse">
<stop stop-color="#101113"/>
<stop offset="1" stop-color="#0A5F44"/>
</linearGradient>
<linearGradient id="paint1_linear_280_2749" x1="191.251" y1="221.633" x2="191.251" y2="482.633" gradientUnits="userSpaceOnUse">
<stop stop-color="#0A5F44"/>
<stop offset="1" stop-color="#223E35"/>
</linearGradient>
<linearGradient id="paint2_linear_280_2749" x1="371.973" y1="48.1686" x2="332.301" y2="118.366" gradientUnits="userSpaceOnUse">
<stop stop-color="#0BB57F"/>
<stop offset="1" stop-color="#054F38"/>
</linearGradient>
</defs>
</svg>
