<svg width="384" height="481" viewBox="0 0 384 481" fill="none" xmlns="http://www.w3.org/2000/svg">
<path opacity="0.2" d="M77.1539 383.928C80.0776 398.082 88.3999 409.714 101.345 415.893C114.229 422.094 130.678 422.336 146.019 416.937C161.359 411.538 174.031 401.047 180.191 388.143C186.412 375.217 185.614 360.937 179.028 348.072C178.88 347.781 178.731 347.489 178.583 347.198L178.864 348.019C178.721 347.727 178.578 347.435 178.435 347.143L178.71 347.99C178.573 347.697 178.436 347.404 178.298 347.111L178.566 347.985C178.434 347.691 178.303 347.398 178.171 347.104L178.429 348.003C178.303 347.709 178.178 347.414 178.052 347.12L178.3 348.043C178.179 347.748 178.059 347.453 177.939 347.158L178.175 348.104C178.061 347.808 177.947 347.512 177.833 347.216L178.055 348.185C177.947 347.889 177.839 347.592 177.731 347.295L177.939 348.284C177.837 347.986 177.735 347.689 177.633 347.391L177.824 348.399C177.728 348.101 177.632 347.802 177.537 347.504L177.71 348.53C177.621 348.23 177.531 347.931 177.442 347.632L177.597 348.673C177.513 348.373 177.43 348.072 177.347 347.772L177.482 348.827C177.405 348.526 177.328 348.225 177.251 347.924L177.366 348.989C177.295 348.687 177.225 348.385 177.154 348.084L177.248 349.158C177.183 348.855 177.119 348.552 177.055 348.25L177.126 349.33C177.068 349.027 177.01 348.723 176.952 348.42L177.002 349.505C176.95 349.2 176.899 348.896 176.847 348.592L176.874 349.678C176.828 349.373 176.783 349.068 176.738 348.763L176.742 349.848C176.703 349.542 176.664 349.236 176.626 348.93L176.607 350.012C176.574 349.705 176.542 349.398 176.51 349.091L176.469 350.167C176.443 349.859 176.417 349.552 176.391 349.244L176.327 350.312C176.315 350.123 176.303 349.935 176.292 349.746C176.284 349.626 176.276 349.506 176.269 349.386L176.184 350.443C176.171 350.134 176.158 349.824 176.144 349.515L176.039 350.559C176.032 350.249 176.025 349.939 176.019 349.628L175.893 350.657C175.893 350.346 175.892 350.035 175.892 349.724L175.748 350.736C175.754 350.424 175.759 350.112 175.765 349.8L175.604 350.793C175.616 350.48 175.627 350.168 175.639 349.855L175.462 350.827C175.48 350.513 175.498 350.2 175.516 349.886L175.323 350.836C175.347 350.522 175.372 350.207 175.396 349.893L175.189 350.82C175.22 350.504 175.25 350.189 175.28 349.874L175.062 350.775C175.098 350.459 175.134 350.143 175.17 349.827L174.941 350.703C174.983 350.386 175.025 350.069 175.068 349.752L174.829 350.601C174.877 350.283 174.925 349.966 174.973 349.648L174.726 350.47C174.78 350.152 174.834 349.833 174.888 349.515L174.635 350.308C174.694 349.989 174.754 349.669 174.813 349.35L174.555 350.115C174.62 349.795 174.685 349.476 174.75 349.156L174.489 349.892C174.559 349.571 174.629 349.251 174.7 348.93L174.436 349.637C174.512 349.316 174.588 348.995 174.663 348.673L174.399 349.352C174.48 349.03 174.561 348.708 174.642 348.386L174.378 349.035C174.463 348.713 174.549 348.39 174.635 348.067L174.373 348.688C174.464 348.365 174.555 348.042 174.645 347.718L174.385 348.311C174.481 347.987 174.577 347.663 174.672 347.339L174.416 347.903C174.516 347.579 174.617 347.254 174.717 346.929L174.465 347.467C174.57 347.142 174.675 346.816 174.78 346.491L174.533 347.001C174.643 346.675 174.752 346.349 174.861 346.023L174.621 346.506C174.734 346.18 174.848 345.853 174.962 345.527L174.728 345.984C174.845 345.657 174.963 345.33 175.081 345.003L174.855 345.434C174.976 345.106 175.098 344.779 175.22 344.451L175.001 344.858C175.127 344.53 175.252 344.202 175.378 343.874L175.168 344.255C175.297 343.926 175.427 343.598 175.556 343.269L175.355 343.627C175.487 343.298 175.62 342.969 175.753 342.64L175.561 342.974C175.697 342.645 175.833 342.315 175.969 341.986L175.788 342.297C175.927 341.967 176.066 341.637 176.205 341.307L176.034 341.596C176.176 341.266 176.318 340.936 176.46 340.606L176.299 340.872C176.444 340.542 176.589 340.211 176.733 339.881L176.583 340.126C176.73 339.796 176.878 339.465 177.025 339.134L176.886 339.358C177.036 339.027 177.186 338.696 177.335 338.364L177.207 338.569C177.359 338.237 177.511 337.906 177.663 337.574L177.546 337.759C177.7 337.427 177.854 337.095 178.008 336.763L177.903 336.928C178.058 336.596 178.214 336.264 178.37 335.932L178.276 336.078C178.433 335.745 178.591 335.413 178.748 335.081L178.666 335.207C178.824 334.875 178.983 334.543 179.142 334.21L179.071 334.319C179.231 333.986 179.391 333.653 179.551 333.321L179.492 333.411C179.653 333.078 179.814 332.746 179.975 332.413L179.927 332.485C180.089 332.152 180.251 331.819 180.413 331.486L180.377 331.541C180.539 331.208 180.702 330.875 180.865 330.542L180.84 330.579C181.003 330.246 181.166 329.913 181.329 329.58L181.316 329.6C181.479 329.267 181.642 328.934 181.805 328.601C181.967 328.271 182.13 327.938 182.293 327.605C182.296 327.603 182.301 327.593 182.303 327.591C182.466 327.258 182.629 326.925 182.792 326.592C182.797 326.586 182.808 326.566 182.813 326.561C182.976 326.228 183.138 325.895 183.301 325.562C183.309 325.553 183.326 325.522 183.333 325.514C183.495 325.181 183.658 324.848 183.82 324.515C183.83 324.503 183.853 324.462 183.863 324.45C184.024 324.118 184.186 323.785 184.347 323.452C184.36 323.437 184.388 323.385 184.401 323.37C184.561 323.038 184.722 322.705 184.882 322.372C184.898 322.354 184.931 322.292 184.947 322.274C185.106 321.941 185.265 321.609 185.425 321.276C185.443 321.256 185.482 321.182 185.5 321.161C185.658 320.829 185.816 320.496 185.974 320.164C185.994 320.14 186.039 320.055 186.06 320.031C186.216 319.699 186.372 319.367 186.529 319.035C186.552 319.008 186.602 318.913 186.625 318.886C186.779 318.554 186.934 318.222 187.089 317.89C187.114 317.86 187.169 317.754 187.194 317.723C187.347 317.392 187.5 317.06 187.652 316.728C187.68 316.695 187.741 316.578 187.768 316.544C187.919 316.213 188.069 315.882 188.22 315.55C188.25 315.514 188.315 315.385 188.345 315.349C188.493 315.018 188.642 314.687 188.79 314.356C188.823 314.316 188.892 314.176 188.925 314.136C189.07 313.806 189.216 313.475 189.362 313.144C189.397 313.101 189.471 312.95 189.505 312.907C189.648 312.577 189.791 312.246 189.934 311.916C189.971 311.869 190.05 311.707 190.087 311.66C190.227 311.33 190.367 311 190.507 310.67C190.546 310.621 190.629 310.447 190.668 310.397C190.805 310.067 190.942 309.737 191.079 309.408C191.12 309.355 191.206 309.169 191.247 309.116C191.381 308.786 191.515 308.457 191.649 308.128C191.692 308.071 191.782 307.874 191.825 307.817C191.955 307.488 192.086 307.16 192.216 306.831C192.261 306.77 192.355 306.561 192.399 306.5C192.526 306.172 192.653 305.844 192.78 305.516C192.827 305.452 192.923 305.23 192.97 305.166C193.093 304.838 193.216 304.51 193.339 304.182C193.388 304.115 193.486 303.881 193.535 303.813C193.654 303.486 193.773 303.159 193.892 302.832C193.943 302.76 194.044 302.514 194.093 302.442C194.209 302.115 194.324 301.789 194.439 301.462C194.491 301.387 194.593 301.129 194.645 301.053C194.756 300.727 194.866 300.401 194.977 300.075C195.031 299.995 195.135 299.724 195.188 299.644C195.294 299.319 195.401 298.993 195.507 298.668C195.562 298.585 195.667 298.302 195.721 298.218C195.823 297.893 195.925 297.568 196.027 297.243C196.083 297.156 196.189 296.86 196.244 296.772C196.341 296.448 196.438 296.124 196.536 295.8C196.593 295.708 196.698 295.4 196.754 295.308C196.847 294.984 196.939 294.66 197.032 294.337C197.089 294.241 197.195 293.921 197.251 293.825C197.339 293.502 197.426 293.179 197.514 292.856C197.573 292.756 197.677 292.423 197.734 292.322C197.816 292 197.899 291.678 197.982 291.356C198.04 291.252 198.143 290.906 198.201 290.802C198.278 290.48 198.355 290.159 198.433 289.837C198.492 289.729 198.593 289.371 198.65 289.263C198.722 288.942 198.794 288.621 198.866 288.3C198.926 288.189 199.024 287.818 199.081 287.706C199.148 287.386 199.214 287.065 199.281 286.745C199.34 286.629 199.435 286.247 199.492 286.131C199.553 285.811 199.614 285.492 199.676 285.172C199.734 285.053 199.825 284.659 199.882 284.538C199.937 284.22 199.993 283.901 200.048 283.582C200.106 283.459 200.193 283.054 200.249 282.929C200.298 282.611 200.348 282.293 200.398 281.975C200.456 281.848 200.536 281.432 200.591 281.304C200.636 280.987 200.68 280.67 200.724 280.353C200.78 280.221 200.855 279.796 200.909 279.663C200.947 279.347 200.985 279.031 201.024 278.714C201.078 278.58 201.147 278.144 201.199 278.008C201.232 277.693 201.264 277.377 201.296 277.062C201.35 276.924 201.411 276.479 201.462 276.34C201.488 276.025 201.515 275.71 201.541 275.395C201.592 275.254 201.647 274.802 201.695 274.659C201.716 274.345 201.736 274.031 201.756 273.717C201.805 273.573 201.852 273.113 201.898 272.968C201.912 272.654 201.926 272.341 201.94 272.028C201.988 271.881 202.025 271.414 202.07 271.266C202.077 270.953 202.085 270.641 202.093 270.329C202.138 270.179 202.167 269.706 202.208 269.556C202.21 269.244 202.212 268.933 202.213 268.621C202.255 268.469 202.275 267.992 202.314 267.839C202.309 267.528 202.304 267.218 202.3 266.907C202.339 266.753 202.349 266.272 202.385 266.118C202.374 265.808 202.363 265.498 202.352 265.188C202.388 265.033 202.388 264.549 202.421 264.392C202.404 264.084 202.386 263.775 202.369 263.466C202.402 263.309 202.392 262.823 202.422 262.666C202.398 262.358 202.375 262.05 202.351 261.742C202.381 261.584 202.36 261.098 202.387 260.939C202.357 260.632 202.327 260.325 202.297 260.018C202.324 259.859 202.293 259.374 202.316 259.215C202.28 258.908 202.243 258.602 202.207 258.296C202.23 258.137 202.189 257.653 202.21 257.494C202.167 257.189 202.124 256.883 202.081 256.578C202.101 256.419 202.05 255.938 202.067 255.779C202.017 255.474 201.968 255.17 201.918 254.865C201.935 254.707 201.875 254.23 201.888 254.072C201.832 253.768 201.776 253.465 201.721 253.161C201.734 253.004 201.664 252.531 201.674 252.374C201.612 252.071 201.549 251.768 201.487 251.465C201.497 251.31 201.418 250.843 201.425 250.687C201.356 250.385 201.288 250.083 201.219 249.781C201.226 249.627 201.138 249.168 201.142 249.013C201.067 248.712 200.992 248.411 200.917 248.11C200.92 247.957 200.825 247.506 200.825 247.353C200.744 247.053 200.663 246.753 200.581 246.452C200.582 246.302 200.478 245.86 200.476 245.709C200.388 245.41 200.301 245.11 200.213 244.811C200.21 244.663 200.1 244.23 200.095 244.082C200.001 243.784 199.907 243.485 199.814 243.186C199.808 243.042 199.692 242.619 199.683 242.474C199.583 242.176 199.484 241.878 199.384 241.58C199.375 241.439 199.253 241.026 199.243 240.885C199.137 240.588 199.031 240.291 198.925 239.994C198.914 239.855 198.787 239.454 198.774 239.316C198.661 239.02 198.549 238.723 198.437 238.427C198.424 238.292 198.293 237.903 198.278 237.768C198.16 237.473 198.042 237.177 197.924 236.882C197.909 236.75 197.774 236.374 197.756 236.243C197.632 235.948 197.508 235.653 197.384 235.359C197.367 235.231 197.23 234.867 197.21 234.739C197.081 234.446 196.951 234.152 196.821 233.858C196.802 233.734 196.662 233.382 196.642 233.259C196.506 232.966 196.371 232.673 196.235 232.38C196.215 232.26 196.073 231.921 196.051 231.802C195.91 231.51 195.769 231.218 195.628 230.925C195.606 230.81 195.464 230.484 195.441 230.369C195.294 230.077 195.147 229.785 195.001 229.494C194.978 229.383 194.835 229.07 194.811 228.959C194.659 228.668 194.507 228.377 194.355 228.086C194.331 227.979 194.188 227.679 194.163 227.573C194.006 227.283 193.849 226.992 193.691 226.702C193.667 226.599 193.525 226.313 193.499 226.21C193.337 225.921 193.174 225.631 193.012 225.342C192.987 225.243 192.847 224.969 192.82 224.871C192.653 224.582 192.485 224.294 192.317 224.005C192.292 223.91 192.154 223.649 192.127 223.555C191.955 223.267 191.782 222.979 191.609 222.691C191.584 222.601 191.448 222.352 191.421 222.262C191.244 221.975 191.066 221.687 190.889 221.4C190.863 221.314 190.73 221.078 190.703 220.992C190.521 220.705 190.339 220.418 190.157 220.132C190.132 220.05 190.001 219.826 189.975 219.744C189.788 219.458 189.601 219.171 189.415 218.885C189.389 218.808 189.263 218.595 189.237 218.518C189.046 218.232 188.854 217.947 188.663 217.661C188.638 217.587 188.515 217.387 188.49 217.313C188.294 217.028 188.099 216.743 187.903 216.458C187.879 216.388 187.76 216.199 187.735 216.13C187.536 215.845 187.336 215.56 187.137 215.276C187.113 215.21 186.998 215.032 186.974 214.966C186.77 214.682 186.567 214.398 186.363 214.114C186.34 214.052 186.23 213.885 186.207 213.823C185.999 213.539 185.792 213.256 185.585 212.972C185.562 212.914 185.457 212.757 185.434 212.699C185.223 212.416 185.012 212.133 184.801 211.85C184.78 211.795 184.68 211.648 184.658 211.594C184.443 211.311 184.229 211.029 184.014 210.746C183.994 210.695 183.899 210.559 183.878 210.508C183.66 210.226 183.442 209.943 183.225 209.661C183.205 209.614 183.115 209.487 183.095 209.439C182.874 209.158 182.653 208.876 182.432 208.594C182.414 208.55 182.329 208.432 182.31 208.388C182.086 208.107 181.863 207.825 181.639 207.544C181.621 207.503 181.542 207.395 181.524 207.354C181.298 207.073 181.071 206.792 180.845 206.511C180.828 206.474 180.755 206.374 180.738 206.336C180.509 206.056 180.28 205.775 180.051 205.495C180.035 205.46 179.967 205.369 179.952 205.335C179.72 205.055 179.489 204.775 179.257 204.494C179.243 204.463 179.181 204.381 179.166 204.349C178.933 204.069 178.699 203.789 178.465 203.509C178.452 203.481 178.395 203.407 178.382 203.379C178.147 203.099 177.911 202.819 177.675 202.539C177.664 202.514 177.612 202.448 177.601 202.423C177.363 202.143 177.125 201.864 176.888 201.585C176.877 201.562 176.832 201.504 176.821 201.481C176.582 201.202 176.343 200.923 176.104 200.644C176.095 200.624 176.055 200.573 176.046 200.554C175.805 200.275 175.564 199.996 175.324 199.717C175.316 199.701 175.282 199.657 175.274 199.641C175.032 199.362 174.79 199.083 174.548 198.804C174.542 198.79 174.513 198.754 174.506 198.74C174.263 198.461 174.02 198.183 173.778 197.904C173.772 197.893 173.749 197.864 173.744 197.853C173.5 197.575 173.256 197.296 173.013 197.017C173.009 197.009 172.991 196.987 172.987 196.979C172.743 196.7 172.498 196.422 172.254 196.143C172.251 196.137 172.239 196.123 172.237 196.117C171.992 195.838 171.747 195.56 171.502 195.281C171.501 195.278 171.494 195.27 171.493 195.267C171.248 194.989 171.003 194.71 170.758 194.432C170.511 194.151 170.266 193.873 170.021 193.594L170.028 193.604C169.783 193.326 169.538 193.048 169.293 192.769L169.308 192.791C169.063 192.512 168.819 192.233 168.574 191.955L168.596 191.988C168.352 191.71 168.108 191.431 167.864 191.152L167.894 191.197C167.651 190.919 167.408 190.64 167.165 190.361L167.202 190.418C166.96 190.139 166.718 189.86 166.475 189.581L166.52 189.65C166.279 189.371 166.038 189.092 165.797 188.813L165.849 188.892C165.609 188.613 165.37 188.334 165.13 188.055L165.189 188.146C164.951 187.867 164.713 187.588 164.475 187.308L164.541 187.411C164.305 187.132 164.069 186.852 163.832 186.572L163.905 186.687C163.671 186.407 163.436 186.127 163.202 185.848L163.282 185.974C163.049 185.694 162.817 185.414 162.585 185.134L162.671 185.272C162.441 184.992 162.211 184.711 161.981 184.431L162.074 184.581C161.846 184.3 161.619 184.019 161.391 183.739L161.49 183.901C161.265 183.62 161.04 183.339 160.816 183.058L160.92 183.232C160.698 182.951 160.476 182.669 160.254 182.388L160.364 182.575C160.145 182.293 159.926 182.011 159.708 181.729L159.823 181.928C159.607 181.646 159.391 181.363 159.176 181.081L159.296 181.293C159.084 181.01 158.872 180.727 158.659 180.444L158.784 180.669C158.575 180.385 158.367 180.102 158.158 179.819L158.287 180.056C158.082 179.772 157.877 179.488 157.673 179.205L157.805 179.455C157.604 179.17 157.403 178.886 157.202 178.602L157.339 178.865C157.142 178.58 156.945 178.296 156.748 178.011L156.887 178.287C156.694 178.001 156.502 177.716 156.309 177.431L156.451 177.721C156.263 177.434 156.075 177.148 155.886 176.862L156.03 177.165C155.846 176.879 155.663 176.592 155.479 176.305L155.624 176.622C155.445 176.335 155.266 176.047 155.087 175.76L155.234 176.09C155.059 175.802 154.885 175.514 154.711 175.226L154.858 175.569C154.688 175.281 154.519 174.992 154.35 174.704L154.496 175.06C154.332 174.771 154.168 174.482 154.003 174.193L154.15 174.562C153.99 174.272 153.831 173.982 153.672 173.693L153.817 174.075C153.663 173.785 153.509 173.494 153.355 173.203L153.498 173.599C153.35 173.308 153.201 173.016 153.053 172.725L153.193 173.133C153.05 172.841 152.907 172.549 152.764 172.257L152.9 172.678C152.763 172.385 152.625 172.092 152.488 171.799L152.621 172.232C152.489 171.938 152.357 171.644 152.226 171.351L152.353 171.795C152.227 171.501 152.101 171.206 151.976 170.912L152.098 171.367C151.978 171.072 151.858 170.776 151.738 170.481L151.853 170.946C151.739 170.65 151.625 170.354 151.511 170.058L151.62 170.534C151.512 170.237 151.404 169.94 151.296 169.643L151.398 170.127C151.296 169.829 151.194 169.532 151.092 169.234L151.185 169.726C151.089 169.428 150.993 169.129 150.898 168.831L150.982 169.33C150.893 169.031 150.803 168.731 150.713 168.432L150.789 168.938C150.705 168.637 150.622 168.337 150.539 168.037L150.604 168.548C150.527 168.247 150.45 167.946 150.373 167.645L150.429 168.16C150.358 167.858 150.287 167.556 150.217 167.254L150.262 167.772C150.197 167.469 150.133 167.166 150.069 166.864L150.103 167.383C150.045 167.08 149.987 166.776 149.929 166.473L149.953 166.993C149.901 166.688 149.85 166.384 149.798 166.08L149.811 166.599C149.766 166.294 149.721 165.989 149.675 165.684L149.677 166.201C149.638 165.895 149.6 165.589 149.561 165.283L149.552 165.798C149.52 165.491 149.487 165.184 149.455 164.877L149.435 165.388C149.409 165.08 149.383 164.772 149.358 164.464L149.328 164.97C149.308 164.661 149.289 164.353 149.269 164.044L149.229 164.543C149.216 164.234 149.203 163.924 149.189 163.615L149.14 164.106C149.133 163.796 149.126 163.485 149.119 163.175L149.061 163.658C149.06 163.347 149.059 163.036 149.059 162.725L148.992 163.198C148.997 162.886 149.003 162.574 149.009 162.262L148.933 162.726C148.945 162.413 148.957 162.1 148.969 161.788L148.887 162.24C148.905 161.926 148.923 161.613 148.941 161.299L148.851 161.74C148.876 161.426 148.9 161.111 148.924 160.797L148.829 161.226C148.859 160.91 148.889 160.595 148.919 160.28L148.819 160.696C148.855 160.38 148.891 160.064 148.927 159.748L148.822 160.15C148.864 159.834 148.906 159.517 148.948 159.2L148.839 159.589C148.887 159.272 148.935 158.954 148.983 158.636L148.87 159.012C148.924 158.694 148.978 158.375 149.031 158.057L148.916 158.419C148.975 158.099 149.035 157.78 149.094 157.461L148.977 157.809C149.042 157.489 149.107 157.169 149.172 156.849L149.053 157.183C149.124 156.862 149.194 156.541 149.264 156.221L149.145 156.54C149.221 156.219 149.297 155.898 149.372 155.576L149.253 155.882C149.334 155.56 149.415 155.238 149.496 154.916L149.377 155.207C149.463 154.885 149.549 154.562 149.635 154.239L149.518 154.517C149.609 154.193 149.7 153.87 149.791 153.547L149.675 153.811C149.77 153.487 149.866 153.163 149.962 152.839L149.848 153.09C149.948 152.765 150.049 152.44 150.149 152.116L150.037 152.353C150.142 152.028 150.247 151.703 150.352 151.378L150.244 151.602C150.353 151.277 150.462 150.951 150.572 150.625L150.466 150.837C150.58 150.511 150.693 150.184 150.807 149.858L150.705 150.058C150.822 149.731 150.94 149.404 151.058 149.077L150.959 149.265C151.081 148.938 151.203 148.61 151.325 148.283L151.23 148.459C151.355 148.131 151.481 147.803 151.606 147.475L151.515 147.64C151.645 147.312 151.774 146.983 151.903 146.655L151.816 146.809C151.949 146.48 152.082 146.151 152.214 145.822L152.132 145.965C152.268 145.636 152.404 145.307 152.54 144.977L152.462 145.11C152.601 144.781 152.74 144.451 152.88 144.121L152.807 144.244C152.949 143.914 153.091 143.584 153.233 143.253L153.164 143.367C153.309 143.036 153.454 142.705 153.599 142.375L153.535 142.479C153.683 142.148 153.83 141.817 153.977 141.486L153.919 141.58C154.068 141.249 154.218 140.918 154.368 140.587L154.314 140.672C154.466 140.341 154.618 140.009 154.77 139.678L154.721 139.755C154.875 139.423 155.029 139.091 155.183 138.759L155.139 138.828C155.295 138.496 155.451 138.164 155.607 137.832L155.568 137.892C155.725 137.56 155.883 137.227 156.04 136.895L156.006 136.947C156.165 136.615 156.324 136.282 156.483 135.95L156.454 135.994C156.614 135.662 156.774 135.329 156.934 134.996L156.91 135.033C157.071 134.701 157.232 134.368 157.393 134.035L157.374 134.064C157.536 133.731 157.698 133.399 157.859 133.066L157.845 133.088C158.007 132.755 158.17 132.422 158.333 132.089L158.323 132.104C158.486 131.771 158.649 131.438 158.812 131.105C158.97 130.78 159.133 130.447 159.296 130.114C159.459 129.782 159.622 129.449 159.785 129.116C159.952 128.777 160.115 128.444 160.279 128.111C160.281 128.109 160.285 128.101 160.287 128.099C160.449 127.766 160.612 127.433 160.775 127.1C160.778 127.096 160.785 127.084 160.788 127.081C160.95 126.748 161.112 126.415 161.274 126.082C161.278 126.078 161.287 126.061 161.291 126.057C161.452 125.724 161.614 125.391 161.775 125.059C161.78 125.053 161.791 125.033 161.796 125.027C161.957 124.694 162.117 124.361 162.278 124.029C162.283 124.022 162.297 123.998 162.302 123.991C162.462 123.658 162.621 123.326 162.78 122.993C162.787 122.985 162.802 122.957 162.809 122.949C162.967 122.617 163.125 122.284 163.283 121.952C163.291 121.943 163.308 121.91 163.316 121.901C163.472 121.569 163.629 121.237 163.785 120.905C163.794 120.895 163.813 120.858 163.821 120.848C163.976 120.516 164.131 120.184 164.285 119.852C164.295 119.841 164.316 119.801 164.325 119.789C164.478 119.458 164.631 119.126 164.783 118.794C164.794 118.782 164.816 118.738 164.827 118.725C164.977 118.394 165.128 118.063 165.278 117.731C165.29 117.718 165.314 117.67 165.325 117.656C165.473 117.325 165.622 116.994 165.77 116.663C165.782 116.648 165.808 116.596 165.82 116.581C165.966 116.25 166.111 115.92 166.257 115.589C166.27 115.573 166.297 115.517 166.31 115.501C166.453 115.171 166.596 114.841 166.739 114.51C166.753 114.493 166.782 114.434 166.795 114.416C166.935 114.087 167.075 113.757 167.215 113.427C167.23 113.408 167.26 113.345 167.274 113.327C167.411 112.997 167.548 112.667 167.685 112.338C167.7 112.318 167.732 112.251 167.746 112.232C167.88 111.903 168.014 111.573 168.148 111.244C168.163 111.224 168.196 111.152 168.211 111.132C168.342 110.803 168.472 110.475 168.603 110.146C168.619 110.124 168.652 110.049 168.668 110.027C168.795 109.699 168.922 109.371 169.049 109.043C169.066 109.02 169.1 108.941 169.117 108.918C169.24 108.59 169.363 108.262 169.486 107.935C169.503 107.911 169.538 107.828 169.555 107.804C169.674 107.476 169.794 107.149 169.913 106.822C169.931 106.797 169.966 106.71 169.984 106.685C170.099 106.358 170.214 106.031 170.329 105.705C170.347 105.678 170.383 105.588 170.401 105.561C170.512 105.235 170.623 104.909 170.734 104.583C170.753 104.556 170.789 104.461 170.807 104.433C170.914 104.108 171.02 103.782 171.127 103.457C171.146 103.428 171.182 103.33 171.201 103.301C171.303 102.976 171.405 102.651 171.507 102.326C171.526 102.296 171.562 102.195 171.581 102.164C171.679 101.84 171.776 101.516 171.873 101.192C171.893 101.16 171.929 101.055 171.948 101.023C172.041 100.7 172.133 100.376 172.226 100.053C172.245 100.02 172.281 99.9113 172.3 99.8786C172.388 99.5557 172.476 99.2327 172.563 98.9098C172.583 98.8762 172.618 98.7636 172.637 98.7297C172.72 98.4074 172.803 98.0852 172.885 97.7629C172.905 97.7281 172.939 97.6121 172.959 97.5771C173.036 97.2555 173.113 96.934 173.191 96.6124C173.211 96.5765 173.244 96.4572 173.263 96.421C173.335 96.1001 173.408 95.7792 173.48 95.4583C173.499 95.4214 173.532 95.2987 173.551 95.2614C173.617 94.9413 173.684 94.6211 173.751 94.301C173.77 94.2629 173.801 94.1371 173.82 94.0988C173.882 93.7793 173.943 93.4599 174.004 93.1405C174.023 93.1013 174.053 92.9727 174.071 92.9333C174.127 92.6146 174.183 92.2959 174.238 91.9773C174.257 91.9371 174.285 91.8057 174.303 91.7652C174.353 91.4473 174.403 91.1294 174.453 90.8115C174.471 90.7703 174.497 90.6363 174.515 90.5948C174.559 90.2777 174.603 89.9606 174.648 89.6435C174.666 89.6014 174.69 89.4651 174.707 89.4227C174.745 89.1064 174.783 88.79 174.822 88.4737C174.839 88.4308 174.861 88.2922 174.878 88.249C174.91 87.9335 174.942 87.6179 174.975 87.3024C174.991 87.2587 175.011 87.1182 175.027 87.0742C175.053 86.7594 175.08 86.4447 175.106 86.1299C175.122 86.0856 175.139 85.9435 175.154 85.8989C175.175 85.5849 175.195 85.271 175.215 84.9571C175.23 84.912 175.245 84.7686 175.259 84.7233C175.273 84.4102 175.287 84.0971 175.301 83.784C175.316 83.7384 175.328 83.5939 175.341 83.548C175.349 83.2357 175.357 82.9235 175.365 82.6112C175.379 82.5652 175.388 82.4199 175.4 82.3736C175.402 82.0622 175.404 81.7508 175.405 81.4393C175.418 81.3929 175.424 81.2472 175.436 81.2006C175.431 80.89 175.426 80.5794 175.422 80.2688C175.434 80.2222 175.437 80.0764 175.448 80.0296C175.437 79.7198 175.426 79.4101 175.414 79.1003C175.425 79.0536 175.425 78.908 175.435 78.8611C175.418 78.5522 175.401 78.2433 175.383 77.9344C175.393 77.8875 175.39 77.7426 175.399 77.6956C175.375 77.3875 175.351 77.0795 175.328 76.7714C175.337 76.7247 175.331 76.5807 175.339 76.5338C175.308 76.2266 175.278 75.9194 175.248 75.6122C175.256 75.5656 175.247 75.4229 175.254 75.3762C175.217 75.0698 175.181 74.7635 175.144 74.4571C175.151 74.4109 175.139 74.2697 175.145 74.2234C175.102 73.9179 175.059 73.6124 175.016 73.3069C175.022 73.261 175.007 73.1218 175.012 73.0758C174.962 72.7712 174.913 72.4666 174.864 72.162C174.868 72.1166 174.851 71.9797 174.855 71.9343C174.799 71.6305 174.743 71.3267 174.687 71.0229C174.691 70.9782 174.671 70.8437 174.674 70.7989C174.612 70.496 174.55 70.1931 174.488 69.8902C174.49 69.8462 174.468 69.7144 174.47 69.6704C174.401 69.3683 174.333 69.0663 174.264 68.7642C174.266 68.721 174.242 68.5923 174.242 68.5491C174.168 68.2479 174.093 67.9467 174.018 67.6455C174.019 67.6032 173.992 67.4778 173.992 67.4355C173.911 67.1351 173.83 66.8347 173.749 66.5344C173.749 66.493 173.72 66.3711 173.719 66.3298C173.632 66.0303 173.544 65.7307 173.457 65.4312C173.456 65.3909 173.426 65.2727 173.425 65.2324C173.331 64.9337 173.237 64.635 173.143 64.3363C173.142 64.2971 173.111 64.1827 173.108 64.1436C173.008 63.8457 172.908 63.5478 172.809 63.25C172.806 63.212 172.774 63.1015 172.771 63.0635C172.665 62.7665 172.559 62.4694 172.453 62.1724C172.45 62.1356 172.416 62.0291 172.413 61.9924C172.301 61.6961 172.189 61.3999 172.077 61.1036C172.073 61.0681 172.039 60.9658 172.035 60.9303C171.917 60.6349 171.799 60.3394 171.681 60.044C171.677 60.0098 171.641 59.9116 171.637 59.8775C171.513 59.5828 171.389 59.2882 171.265 58.9935C171.261 58.9606 171.225 58.8666 171.22 58.8338C171.091 58.5399 170.961 58.246 170.831 57.9521C170.826 57.9206 170.791 57.8307 170.785 57.7993C170.65 57.5061 170.514 57.213 170.379 56.9199C170.374 56.8897 170.338 56.8042 170.332 56.774C170.191 56.4817 170.05 56.1893 169.909 55.897C169.904 55.8681 169.868 55.7866 169.862 55.7579C169.716 55.4662 169.569 55.1746 169.422 54.883C169.417 54.8555 169.381 54.7781 169.375 54.7507C169.223 54.4598 169.071 54.1689 168.919 53.878C168.913 53.8518 168.878 53.7786 168.872 53.7525C168.715 53.4623 168.558 53.1721 168.4 52.8819C168.394 52.8571 168.36 52.7877 168.354 52.763C168.191 52.4735 168.029 52.184 167.866 51.8945C167.86 51.8709 167.827 51.8055 167.82 51.7821C167.653 51.4933 167.485 51.2044 167.317 50.9156C167.311 50.8934 167.279 50.8317 167.272 50.8095C167.1 50.5214 166.927 50.2332 166.754 49.9451C166.748 49.9241 166.717 49.8661 166.71 49.8452C166.533 49.5576 166.355 49.2701 166.178 48.9826C166.172 48.9629 166.141 48.9085 166.135 48.8888C165.953 48.6019 165.771 48.3151 165.589 48.0282C165.583 48.0096 165.553 47.9586 165.547 47.9401C165.361 47.6538 165.174 47.3676 164.987 47.0813C164.981 47.0639 164.953 47.0163 164.947 46.999C164.756 46.7133 164.565 46.4276 164.374 46.1419C164.368 46.1256 164.341 46.0812 164.335 46.065C164.14 45.7799 163.944 45.4948 163.749 45.2097C163.744 45.1945 163.718 45.1532 163.712 45.138C163.513 44.8535 163.313 44.5689 163.114 44.2844C163.108 44.2702 163.084 44.2319 163.079 44.2178C162.875 43.9338 162.672 43.6498 162.468 43.3658C162.463 43.3526 162.44 43.3171 162.435 43.304C162.228 43.0205 162.02 42.737 161.813 42.4535C161.808 42.4413 161.786 42.4086 161.782 42.3965C161.571 42.1135 161.36 41.8304 161.149 41.5474C161.144 41.5362 161.124 41.506 161.119 41.4948C160.905 41.2122 160.69 40.9297 160.476 40.6471C160.472 40.6368 160.453 40.6092 160.448 40.5989C160.231 40.3168 160.013 40.0347 159.795 39.7525C159.791 39.7431 159.773 39.7178 159.769 39.7084C159.549 39.4267 159.328 39.145 159.107 38.8633C159.103 38.8547 159.087 38.8316 159.083 38.823C158.859 38.5417 158.636 38.2604 158.412 37.9791C158.408 37.9713 158.393 37.9504 158.39 37.9427C158.163 37.6617 157.937 37.3807 157.71 37.0998C157.707 37.0927 157.693 37.0739 157.69 37.0669C157.461 36.7863 157.232 36.5057 157.003 36.2251C157 36.2187 156.987 36.2019 156.984 36.1956C156.753 35.9153 156.521 35.635 156.29 35.3547C156.287 35.3491 156.276 35.3341 156.273 35.3285C156.04 35.0485 155.806 34.7685 155.572 34.4885C155.57 34.4835 155.56 34.4702 155.558 34.4652C155.322 34.1855 155.086 33.9058 154.85 33.6261C154.848 33.6217 154.839 33.6102 154.837 33.6058C154.6 33.3263 154.362 33.0469 154.125 32.7674C154.123 32.7636 154.115 32.7536 154.113 32.7498C153.874 32.4706 153.635 32.1913 153.396 31.9121C153.394 31.9088 153.388 31.9004 153.386 31.8972C153.146 31.6181 152.905 31.339 152.664 31.06C152.663 31.0573 152.657 31.0502 152.656 31.0475C152.414 30.7686 152.173 30.4897 151.931 30.2108C151.93 30.2086 151.925 30.2029 151.924 30.2007C151.681 29.9219 151.438 29.6432 151.195 29.3644C150.946 29.0779 150.703 28.7992 150.459 28.5206C150.211 28.2362 149.966 27.9576 149.722 27.679C149.475 27.3967 149.23 27.1182 148.985 26.8397C148.739 26.5592 148.494 26.2808 148.249 26.0023C148.003 25.7235 147.758 25.4451 147.513 25.1666C147.269 24.8895 147.024 24.611 146.78 24.3325C146.537 24.0568 146.292 23.7782 146.048 23.4997C145.807 23.2253 145.563 22.9467 145.319 22.6681C145.079 22.3949 144.836 22.1162 144.593 21.8374C144.355 21.5653 144.113 21.2865 143.871 21.0076C143.635 20.7364 143.394 20.4574 143.153 20.1784L143.158 20.1872C142.919 19.908 142.679 19.6288 142.439 19.3497L142.446 19.3593C142.208 19.08 141.969 18.8006 141.731 18.5212L141.738 18.5316C141.502 18.252 141.265 17.9724 141.029 17.6927L141.036 17.7039C140.802 17.424 140.567 17.1441 140.333 16.8642L140.34 16.876C140.227 16.7399 140.115 16.6038 140.002 16.4677C139.882 16.3236 139.763 16.1795 139.643 16.0355L139.651 16.0477C139.421 15.7672 139.191 15.4867 138.961 15.2062L138.969 15.2189C138.742 14.938 138.514 14.6572 138.287 14.3764L138.294 14.3893C138.07 14.1081 137.845 13.8269 137.62 13.5457L137.628 13.5589C137.406 13.2773 137.184 12.9957 136.963 12.7141L136.97 12.7273C136.752 12.4453 136.533 12.1634 136.314 11.8814L136.322 11.8945C136.106 11.6121 135.89 11.3297 135.675 11.0473L135.682 11.0603C135.47 10.7774 135.258 10.4945 135.046 10.2117L135.053 10.2244C134.844 9.94107 134.636 9.65771 134.427 9.37436L134.434 9.38675C134.229 9.1029 134.024 8.81906 133.819 8.53522L133.826 8.54709C133.625 8.26273 133.424 7.97836 133.223 7.69397L133.229 7.70529C133.032 7.42038 132.835 7.13544 132.638 6.85052L132.644 6.86108C132.451 6.57559 132.258 6.29013 132.066 6.00464L132.07 6.01434C131.882 5.7283 131.694 5.44223 131.506 5.15616C131.326 4.8782 131.142 4.59155 130.959 4.30487C130.783 4.02518 130.604 3.73791 130.425 3.45062C130.253 3.16904 130.079 2.8811 129.905 2.59317C129.737 2.30957 129.568 2.02097 129.399 1.73239C129.236 1.44656 129.071 1.15732 128.907 0.868042C128.748 0.579895 128.589 0.289947 128.43 -1.49936e-07C128.508 0.321564 128.585 0.643158 128.662 0.964722C128.746 1.28879 128.828 1.61105 128.911 1.93332C129 2.2597 129.088 2.58267 129.175 2.90561C129.27 3.23416 129.362 3.55777 129.455 3.88138C129.555 4.21194 129.653 4.53619 129.75 4.86044C129.855 5.1929 129.957 5.51776 130.059 5.84262C130.17 6.17682 130.277 6.50226 130.383 6.82773C130.384 6.82956 130.387 6.83566 130.388 6.83743C130.499 7.16348 130.61 7.48953 130.72 7.81558C130.722 7.81757 130.724 7.82419 130.726 7.82614C130.841 8.15274 130.956 8.47937 131.071 8.806C131.073 8.80807 131.075 8.81522 131.077 8.81729C131.196 9.14444 131.315 9.47159 131.434 9.79877C131.436 9.80096 131.439 9.80847 131.441 9.81064C131.564 10.1383 131.687 10.466 131.81 10.7937C131.812 10.796 131.815 10.8038 131.817 10.8061C131.943 11.1342 132.07 11.4624 132.197 11.7906C132.199 11.793 132.202 11.801 132.204 11.8033C132.335 12.132 132.465 12.4607 132.595 12.7893C132.597 12.7917 132.601 12.8 132.603 12.8023C132.736 13.1314 132.87 13.4606 133.004 13.7897C133.006 13.7921 133.01 13.8004 133.012 13.8028C133.149 14.1324 133.286 14.4619 133.423 14.7915C133.425 14.7939 133.429 14.8022 133.43 14.8047C133.571 15.1346 133.711 15.4646 133.851 15.7945C133.853 15.7969 133.857 15.8052 133.859 15.8076C134.002 16.138 134.144 16.4683 134.287 16.7986C134.289 16.801 134.293 16.8092 134.295 16.8116C134.441 17.1423 134.587 17.473 134.732 17.8037C134.734 17.806 134.738 17.814 134.74 17.8163C134.888 18.1473 135.036 18.4784 135.185 18.8094C135.186 18.8116 135.19 18.8195 135.192 18.8217C135.27 18.9921 135.347 19.1624 135.424 19.3328C135.498 19.4938 135.571 19.6548 135.644 19.8157C135.646 19.8179 135.649 19.8253 135.651 19.8275C135.804 20.1591 135.957 20.4908 136.109 20.8224C136.111 20.8244 136.115 20.8315 136.116 20.8336C136.271 21.1654 136.426 21.4973 136.58 21.8293C136.582 21.8311 136.585 21.8378 136.587 21.8397C136.743 22.1718 136.9 22.504 137.056 22.8361C137.057 22.8379 137.061 22.8441 137.062 22.8458C137.22 23.1782 137.378 23.5105 137.536 23.8428C137.537 23.8444 137.54 23.8501 137.542 23.8517C137.701 24.1842 137.86 24.5167 138.02 24.8492C138.185 25.1897 138.346 25.5224 138.506 25.8551C138.672 26.1946 138.834 26.5274 138.995 26.8602C139.161 27.1987 139.323 27.5316 139.485 27.8645C139.651 28.2017 139.814 28.5347 139.976 28.8677C140.141 29.2036 140.305 29.5366 140.468 29.8696C140.632 30.204 140.795 30.5371 140.959 30.8702C141.122 31.2029 141.285 31.536 141.448 31.869C141.61 32.2001 141.773 32.5331 141.936 32.8661C142.096 33.1953 142.259 33.5282 142.421 33.8612C142.579 34.1882 142.741 34.5211 142.903 34.854C143.059 35.1789 143.22 35.5116 143.381 35.8444L143.375 35.8343C143.535 36.1669 143.695 36.4995 143.855 36.8322L143.847 36.8197C144.006 37.1522 144.165 37.4846 144.323 37.8171L144.314 37.8022C144.471 38.1345 144.629 38.4668 144.786 38.799L144.775 38.7815C144.93 39.1135 145.086 39.4456 145.242 39.7776L145.229 39.7574C145.383 40.0892 145.537 40.421 145.691 40.7528L145.676 40.7296C145.828 41.0611 145.98 41.3926 146.132 41.7242L146.116 41.6979C146.265 42.0291 146.415 42.3604 146.565 42.6916L146.547 42.6621C146.694 42.9931 146.841 43.324 146.989 43.6549L146.969 43.622C147.113 43.9526 147.258 44.2831 147.403 44.6137L147.381 44.5773C147.523 44.9075 147.665 45.2377 147.807 45.5679L147.783 45.5277C147.922 45.8575 148.061 46.1873 148.2 46.5171L148.175 46.473C148.311 46.8024 148.447 47.1318 148.583 47.4612L148.555 47.413C148.688 47.742 148.82 48.071 148.953 48.3999L148.923 48.3473C149.053 48.6758 149.182 49.0043 149.311 49.3328L149.28 49.2758C149.405 49.6039 149.531 49.9319 149.656 50.2599L149.623 50.1981C149.745 50.5257 149.867 50.8531 149.988 51.1807L149.953 51.1141C150.071 51.4411 150.189 51.7681 150.307 52.095L150.27 52.0234C150.384 52.3498 150.498 52.6763 150.611 53.0027L150.573 52.9257C150.682 53.2516 150.792 53.5774 150.901 53.9033L150.861 53.821C150.966 54.1462 151.071 54.4715 151.176 54.7968L151.135 54.7086C151.235 55.0333 151.336 55.358 151.436 55.6826L151.394 55.5888C151.489 55.9128 151.585 56.2368 151.681 56.5609L151.637 56.4609C151.728 56.7843 151.819 57.1077 151.91 57.4311L151.865 57.3249C151.951 57.6477 152.037 57.9704 152.123 58.2931L152.077 58.1807C152.158 58.5027 152.239 58.8248 152.32 59.1468L152.273 59.0279C152.349 59.3492 152.425 59.6705 152.5 59.9919L152.453 59.8663C152.524 60.1869 152.594 60.5076 152.664 60.8282L152.617 60.696C152.682 61.0159 152.747 61.3358 152.812 61.6557L152.765 61.5166C152.825 61.8357 152.884 62.1549 152.943 62.4741L152.897 62.3282C152.951 62.6466 153.004 62.965 153.058 63.2834L153.012 63.1306C153.06 63.4482 153.108 63.7658 153.156 64.0835L153.111 63.9238C153.153 64.2407 153.196 64.5575 153.238 64.8744L153.194 64.7079C153.23 65.024 153.267 65.3401 153.303 65.6561L153.261 65.4828C153.291 65.7981 153.321 66.1134 153.352 66.4286L153.312 66.2487C153.336 66.5632 153.36 66.8776 153.384 67.1921L153.347 67.0056C153.365 67.3193 153.383 67.633 153.401 67.9466L153.366 67.7539C153.378 68.0667 153.39 68.3796 153.402 68.6924L153.369 68.4936C153.375 68.8056 153.381 69.1176 153.386 69.4296L153.357 69.225C153.357 69.5362 153.356 69.8473 153.356 70.1585L153.33 69.9485C153.323 70.2588 153.317 70.5691 153.31 70.8794L153.288 70.6644C153.275 70.9738 153.262 71.2833 153.249 71.5928L153.231 71.373C153.211 71.6816 153.192 71.9902 153.172 72.2988L153.159 72.0748C153.133 72.3825 153.107 72.6903 153.081 72.9981L153.072 72.7704C153.04 73.0773 153.008 73.3842 152.975 73.6911L152.971 73.46C152.933 73.766 152.894 74.0721 152.855 74.3781L152.856 74.1443C152.811 74.4496 152.766 74.7547 152.72 75.0599L152.726 74.8239C152.675 75.1282 152.623 75.4326 152.572 75.7369L152.582 75.4992C152.524 75.8027 152.466 76.1062 152.408 76.4097L152.424 76.1709C152.36 76.4735 152.296 76.7762 152.231 77.0788L152.252 76.8395C152.181 77.1413 152.111 77.4431 152.04 77.7448L152.066 77.5056C151.989 77.8065 151.912 78.1075 151.835 78.4084L151.865 78.1697C151.782 78.4698 151.699 78.7699 151.615 79.07L151.651 78.8324C151.561 79.1317 151.471 79.4309 151.382 79.7301L151.422 79.4942C151.326 79.7926 151.23 80.091 151.134 80.3894L151.179 80.1557C151.077 80.4533 150.975 80.7509 150.873 81.0485L150.921 80.8174C150.813 81.1142 150.705 81.411 150.597 81.7078L150.65 81.4796C150.536 81.7755 150.421 82.0715 150.307 82.3675L150.363 82.1429C150.243 82.438 150.123 82.7332 150.003 83.0284L150.063 82.8076C149.937 83.102 149.811 83.3965 149.685 83.6909L149.747 83.4742C149.615 83.7679 149.484 84.0615 149.352 84.3551L149.417 84.143C149.28 84.4359 149.142 84.7287 149.005 85.0216L149.072 84.8144C148.929 85.1065 148.786 85.3986 148.643 85.6907L148.713 85.4885C148.564 85.7799 148.416 86.0713 148.267 86.3626L148.338 86.1657C148.184 86.4564 148.03 86.747 147.876 87.0377L147.949 86.8463C147.79 87.1362 147.631 87.4262 147.471 87.7161L147.545 87.5303C147.38 87.8196 147.216 88.1089 147.052 88.3981L147.126 88.218C146.957 88.5066 146.787 88.7952 146.618 89.0838L146.692 88.9098C146.518 89.1977 146.344 89.4856 146.169 89.7735L146.244 89.6053C146.065 89.8926 145.886 90.1799 145.707 90.4672L145.781 90.3051C145.598 90.5918 145.414 90.8785 145.23 91.1651L145.304 91.0092C145.116 91.2953 144.927 91.5814 144.739 91.8674L144.812 91.7176C144.62 92.0031 144.427 92.2885 144.235 92.574L144.307 92.4306C144.11 92.7155 143.913 93.0004 143.716 93.2853L143.787 93.1478C143.586 93.4322 143.385 93.7166 143.185 94.0009L143.254 93.8699C143.049 94.1538 142.844 94.4376 142.639 94.7215L142.707 94.5965C142.499 94.8798 142.29 95.1632 142.082 95.4465L142.147 95.3278C141.935 95.6107 141.723 95.8936 141.511 96.1764L141.575 96.064C141.359 96.3464 141.143 96.6288 140.928 96.9112L140.989 96.805C140.77 97.087 140.552 97.369 140.333 97.6509L140.392 97.5508C140.17 97.8324 139.948 98.114 139.726 98.3956L139.782 98.3016C139.557 98.5828 139.333 98.864 139.108 99.1452L139.161 99.0575C138.934 99.3383 138.706 99.6192 138.479 99.9L138.529 99.8184C138.299 100.099 138.069 100.379 137.839 100.66L137.886 100.585C137.654 100.865 137.421 101.145 137.189 101.425L137.233 101.356C136.998 101.636 136.764 101.916 136.529 102.196L136.569 102.133C136.333 102.412 136.097 102.692 135.86 102.971L135.897 102.915C135.659 103.194 135.421 103.473 135.182 103.753L135.215 103.702C134.976 103.981 134.736 104.261 134.496 104.54L134.525 104.495C134.284 104.774 134.043 105.053 133.802 105.332L133.827 105.295C133.585 105.573 133.342 105.852 133.1 106.131L133.121 106.099C132.878 106.378 132.635 106.657 132.392 106.936L132.408 106.91C132.164 107.189 131.92 107.468 131.676 107.746L131.689 107.727C131.445 108.006 131.2 108.284 130.955 108.563L130.964 108.551C130.719 108.829 130.474 109.108 130.229 109.386C129.988 109.659 129.743 109.937 129.497 110.216C129.252 110.496 129.007 110.774 128.762 111.053C128.511 111.339 128.267 111.618 128.022 111.896C128.02 111.899 128.014 111.908 128.012 111.911C127.768 112.19 127.523 112.468 127.279 112.747C127.277 112.751 127.266 112.764 127.264 112.769C127.02 113.048 126.777 113.326 126.533 113.605C126.53 113.611 126.517 113.628 126.514 113.634C126.271 113.913 126.028 114.192 125.785 114.47C125.781 114.478 125.764 114.499 125.761 114.507C125.519 114.786 125.277 115.065 125.035 115.344C125.03 115.354 125.011 115.379 125.006 115.388C124.765 115.668 124.525 115.947 124.284 116.226C124.279 116.237 124.255 116.267 124.25 116.278C124.011 116.557 123.772 116.836 123.533 117.116C123.526 117.129 123.5 117.163 123.494 117.176C123.256 117.455 123.019 117.735 122.781 118.014C122.774 118.029 122.744 118.068 122.737 118.083C122.501 118.363 122.266 118.642 122.03 118.922C122.022 118.938 121.989 118.982 121.981 118.999C121.747 119.279 121.514 119.559 121.28 119.839C121.272 119.857 121.235 119.906 121.226 119.925C120.995 120.205 120.763 120.485 120.532 120.765C120.523 120.786 120.482 120.84 120.473 120.86C120.244 121.14 120.015 121.421 119.786 121.702C119.776 121.724 119.732 121.783 119.722 121.806C119.496 122.087 119.269 122.367 119.043 122.648C119.032 122.673 118.985 122.737 118.975 122.762C118.751 123.043 118.527 123.324 118.303 123.606C118.292 123.632 118.241 123.702 118.23 123.729C118.009 124.01 117.789 124.292 117.568 124.574C117.556 124.602 117.502 124.678 117.49 124.707C117.272 124.989 117.055 125.271 116.837 125.553C116.824 125.584 116.767 125.666 116.755 125.697C116.54 125.979 116.326 126.262 116.112 126.544C116.098 126.577 116.038 126.666 116.025 126.699C115.814 126.982 115.603 127.265 115.392 127.548C115.378 127.583 115.315 127.678 115.301 127.713C115.094 127.996 114.887 128.28 114.679 128.563C114.665 128.601 114.598 128.702 114.584 128.74C114.381 129.024 114.177 129.308 113.974 129.592C113.959 129.632 113.889 129.74 113.875 129.78C113.675 130.065 113.476 130.349 113.276 130.634C113.261 130.676 113.189 130.791 113.174 130.834C112.978 131.119 112.783 131.404 112.587 131.689C112.572 131.734 112.497 131.856 112.482 131.902C112.29 132.187 112.099 132.473 111.908 132.759C111.892 132.806 111.815 132.936 111.799 132.983C111.612 133.27 111.426 133.556 111.239 133.842C111.223 133.892 111.143 134.03 111.127 134.08C110.945 134.367 110.763 134.654 110.581 134.941C110.564 134.993 110.482 135.138 110.467 135.191C110.289 135.479 110.112 135.766 109.934 136.054C109.918 136.109 109.834 136.262 109.818 136.318C109.646 136.606 109.473 136.894 109.3 137.182C109.284 137.241 109.198 137.402 109.183 137.46C109.015 137.749 108.847 138.038 108.68 138.327C108.663 138.387 108.576 138.557 108.561 138.618C108.399 138.908 108.236 139.197 108.073 139.487C108.057 139.55 107.969 139.728 107.954 139.792C107.797 140.082 107.64 140.372 107.482 140.663C107.466 140.729 107.378 140.916 107.363 140.982C107.211 141.273 107.059 141.564 106.907 141.855C106.892 141.924 106.803 142.119 106.789 142.188C106.642 142.48 106.495 142.772 106.349 143.063C106.334 143.135 106.245 143.339 106.231 143.411C106.09 143.703 105.949 143.996 105.808 144.288C105.794 144.363 105.706 144.575 105.693 144.65C105.558 144.943 105.422 145.236 105.287 145.529C105.274 145.606 105.186 145.827 105.174 145.905C105.044 146.199 104.914 146.493 104.785 146.787C104.773 146.867 104.686 147.096 104.675 147.176C104.551 147.471 104.427 147.765 104.303 148.06C104.292 148.143 104.207 148.38 104.198 148.463C104.08 148.758 103.962 149.054 103.844 149.349C103.834 149.434 103.751 149.68 103.743 149.765C103.631 150.062 103.519 150.358 103.407 150.654C103.398 150.742 103.318 150.995 103.311 151.083C103.205 151.38 103.099 151.677 102.993 151.974C102.986 152.064 102.909 152.325 102.904 152.415C102.804 152.713 102.704 153.011 102.604 153.309C102.599 153.401 102.525 153.669 102.521 153.761C102.428 154.06 102.334 154.359 102.24 154.657C102.237 154.751 102.167 155.027 102.165 155.121C102.077 155.421 101.99 155.72 101.902 156.02C101.901 156.115 101.835 156.398 101.835 156.493C101.754 156.794 101.673 157.094 101.591 157.394C101.592 157.492 101.531 157.78 101.533 157.878C101.458 158.179 101.383 158.48 101.308 158.781C101.31 158.88 101.254 159.174 101.258 159.273C101.19 159.575 101.121 159.877 101.053 160.179C101.057 160.279 101.006 160.578 101.013 160.678C100.95 160.981 100.888 161.284 100.826 161.587C100.832 161.688 100.788 161.991 100.796 162.092C100.74 162.396 100.684 162.699 100.629 163.003C100.637 163.105 100.598 163.412 100.609 163.514C100.56 163.818 100.51 164.123 100.461 164.427C100.472 164.53 100.439 164.84 100.452 164.942C100.409 165.248 100.366 165.553 100.323 165.859C100.336 165.961 100.309 166.274 100.325 166.376C100.288 166.683 100.251 166.989 100.215 167.295C100.23 167.398 100.21 167.712 100.228 167.815C100.197 168.122 100.167 168.429 100.137 168.736C100.154 168.839 100.141 169.154 100.161 169.256C100.137 169.565 100.113 169.873 100.089 170.181C100.109 170.283 100.102 170.598 100.124 170.7C100.106 171.009 100.089 171.318 100.072 171.627C100.093 171.728 100.093 172.043 100.117 172.144C100.106 172.454 100.095 172.764 100.084 173.074C100.107 173.174 100.114 173.488 100.139 173.588C100.135 173.899 100.13 174.209 100.125 174.52C100.151 174.62 100.163 174.931 100.191 175.03C100.192 175.342 100.194 175.653 100.196 175.965C100.223 176.063 100.242 176.372 100.271 176.47C100.279 176.782 100.287 177.095 100.294 177.407C100.324 177.504 100.348 177.81 100.379 177.906C100.393 178.219 100.407 178.532 100.421 178.845C100.452 178.941 100.482 179.243 100.515 179.337C100.535 179.651 100.555 179.965 100.575 180.279C100.607 180.373 100.643 180.67 100.677 180.763C100.703 181.077 100.729 181.392 100.755 181.707C100.789 181.799 100.829 182.091 100.864 182.182C100.897 182.498 100.929 182.813 100.961 183.129C100.996 183.218 101.041 183.505 101.077 183.594C101.116 183.91 101.154 184.227 101.192 184.543C101.228 184.63 101.277 184.911 101.314 184.998C101.358 185.315 101.403 185.632 101.447 185.949C101.483 186.034 101.537 186.309 101.574 186.393C101.624 186.711 101.674 187.029 101.724 187.347C101.761 187.43 101.818 187.698 101.857 187.78C101.912 188.098 101.968 188.417 102.024 188.736C102.061 188.816 102.121 189.077 102.16 189.156C102.221 189.476 102.283 189.795 102.344 190.115C102.382 190.192 102.445 190.446 102.484 190.523C102.551 190.843 102.617 191.163 102.684 191.484C102.722 191.559 102.788 191.805 102.827 191.879C102.899 192.2 102.971 192.521 103.043 192.842C103.082 192.914 103.149 193.153 103.188 193.225C103.266 193.546 103.343 193.868 103.42 194.189C103.459 194.259 103.527 194.49 103.567 194.559C103.649 194.882 103.732 195.204 103.814 195.526C103.853 195.593 103.922 195.816 103.961 195.883C104.049 196.206 104.137 196.529 104.224 196.852C104.262 196.916 104.333 197.131 104.371 197.195C104.464 197.518 104.556 197.842 104.649 198.166C104.686 198.227 104.757 198.434 104.796 198.496C104.893 198.82 104.99 199.144 105.088 199.468C105.124 199.527 105.196 199.726 105.233 199.785C105.335 200.11 105.437 200.435 105.539 200.759C105.575 200.816 105.646 201.006 105.683 201.062C105.789 201.388 105.896 201.713 106.003 202.039C106.038 202.093 106.108 202.275 106.144 202.329C106.255 202.655 106.366 202.981 106.477 203.307C106.512 203.358 106.581 203.532 106.616 203.583C106.731 203.91 106.846 204.237 106.961 204.563C106.995 204.612 107.063 204.778 107.098 204.827C107.217 205.154 107.336 205.481 107.455 205.808C107.488 205.855 107.555 206.013 107.588 206.059C107.711 206.386 107.834 206.714 107.957 207.042C107.988 207.085 108.054 207.236 108.086 207.279C108.213 207.607 108.339 207.936 108.466 208.264C108.497 208.305 108.56 208.447 108.591 208.488C108.721 208.817 108.851 209.146 108.982 209.474C109.011 209.513 109.072 209.648 109.102 209.686C109.235 210.015 109.369 210.344 109.503 210.674C109.531 210.71 109.59 210.837 109.618 210.873C109.755 211.202 109.892 211.532 110.029 211.862C110.056 211.896 110.112 212.014 110.139 212.049C110.279 212.378 110.419 212.708 110.559 213.038C110.584 213.07 110.638 213.181 110.663 213.213C110.806 213.544 110.949 213.874 111.092 214.204C111.116 214.234 111.167 214.337 111.191 214.367C111.336 214.697 111.482 215.028 111.628 215.359C111.65 215.386 111.698 215.482 111.72 215.509C111.868 215.84 112.016 216.171 112.165 216.502C112.185 216.528 112.23 216.616 112.251 216.641C112.401 216.972 112.552 217.303 112.702 217.635C112.721 217.658 112.763 217.739 112.782 217.761C112.935 218.093 113.087 218.425 113.24 218.756C113.258 218.777 113.296 218.85 113.313 218.871C113.468 219.203 113.622 219.535 113.777 219.867C113.793 219.886 113.827 219.951 113.843 219.97C114 220.302 114.156 220.634 114.312 220.966C114.326 220.983 114.357 221.041 114.372 221.058C114.529 221.39 114.687 221.723 114.845 222.055C114.858 222.069 114.885 222.12 114.897 222.135C115.057 222.467 115.216 222.8 115.375 223.132C115.386 223.145 115.409 223.188 115.42 223.201C115.581 223.533 115.741 223.866 115.901 224.199C115.91 224.209 115.93 224.245 115.939 224.255C116.1 224.588 116.262 224.921 116.423 225.254C116.43 225.262 116.446 225.29 116.453 225.299C116.615 225.632 116.777 225.964 116.94 226.297C116.945 226.303 116.957 226.325 116.962 226.331C117.125 226.664 117.287 226.997 117.45 227.33C117.454 227.334 117.461 227.347 117.465 227.351C117.628 227.684 117.791 228.017 117.954 228.35C117.956 228.352 117.959 228.359 117.961 228.36C118.124 228.693 118.287 229.027 118.451 229.36C118.612 229.691 118.776 230.024 118.939 230.357L118.93 230.343C119.093 230.676 119.256 231.009 119.419 231.342L119.401 231.316C119.564 231.649 119.727 231.982 119.889 232.315L119.864 232.276C120.026 232.609 120.188 232.942 120.35 233.275L120.316 233.224C120.477 233.557 120.638 233.889 120.799 234.222L120.757 234.159C120.917 234.491 121.078 234.824 121.238 235.156L121.188 235.08C121.346 235.412 121.505 235.745 121.664 236.077L121.606 235.988C121.763 236.32 121.921 236.652 122.078 236.985L122.012 236.882C122.167 237.214 122.323 237.546 122.479 237.878L122.404 237.761C122.558 238.093 122.712 238.425 122.866 238.757L122.783 238.626C122.935 238.957 123.087 239.289 123.239 239.621L123.148 239.476C123.298 239.807 123.448 240.138 123.598 240.469L123.499 240.31C123.646 240.641 123.794 240.972 123.941 241.303L123.834 241.128C123.979 241.458 124.124 241.789 124.268 242.12L124.154 241.93C124.296 242.26 124.438 242.59 124.58 242.92L124.458 242.714C124.597 243.044 124.736 243.374 124.875 243.704L124.745 243.482C124.881 243.811 125.017 244.14 125.153 244.47L125.017 244.231C125.149 244.56 125.282 244.889 125.415 245.218L125.271 244.962C125.4 245.291 125.529 245.619 125.658 245.948L125.508 245.674C125.633 246.002 125.759 246.33 125.885 246.658L125.728 246.367C125.85 246.694 125.971 247.022 126.093 247.35L125.93 247.04C126.048 247.367 126.166 247.694 126.284 248.021L126.116 247.692C126.229 248.019 126.343 248.345 126.457 248.672L126.283 248.324C126.393 248.65 126.502 248.976 126.612 249.301L126.434 248.934C126.539 249.26 126.644 249.585 126.749 249.91L126.567 249.523C126.667 249.847 126.768 250.172 126.868 250.496L126.683 250.089C126.779 250.413 126.874 250.737 126.97 251.061L126.782 250.632C126.873 250.956 126.964 251.279 127.055 251.603L126.865 251.153C126.951 251.476 127.037 251.799 127.123 252.121L126.931 251.651C127.012 251.973 127.093 252.295 127.174 252.617L126.982 252.125C127.058 252.446 127.134 252.768 127.209 253.089L127.018 252.575C127.088 252.896 127.159 253.217 127.229 253.537L127.039 253.002C127.104 253.322 127.169 253.642 127.234 253.962L127.046 253.406C127.106 253.725 127.165 254.044 127.224 254.363L127.041 253.786C127.094 254.104 127.148 254.423 127.202 254.741L127.022 254.142C127.07 254.46 127.118 254.778 127.166 255.095L126.992 254.476C127.034 254.793 127.076 255.11 127.118 255.427L126.951 254.787C126.987 255.103 127.024 255.42 127.06 255.736L126.9 255.077C126.93 255.392 126.961 255.707 126.991 256.023L126.84 255.345C126.864 255.659 126.888 255.974 126.913 256.288L126.771 255.593C126.79 255.906 126.808 256.22 126.826 256.534L126.696 255.821C126.708 256.134 126.72 256.447 126.731 256.76L126.613 256.031C126.619 256.343 126.625 256.655 126.63 256.967L126.525 256.224C126.524 256.535 126.524 256.847 126.523 257.158L126.431 256.402C126.424 256.712 126.417 257.022 126.411 257.333L126.333 256.565C126.32 256.874 126.307 257.184 126.294 257.493L126.231 256.715C126.212 257.024 126.192 257.332 126.173 257.641L126.126 256.854C126.1 257.162 126.074 257.47 126.048 257.777L126.018 256.984C125.985 257.291 125.953 257.598 125.921 257.905L125.907 257.107C125.868 257.413 125.829 257.719 125.79 258.025L125.793 257.223C125.748 257.528 125.703 257.834 125.658 258.139L125.677 257.336C125.626 257.64 125.574 257.944 125.523 258.249L125.559 257.446C125.501 257.75 125.443 258.053 125.385 258.357L125.438 257.557C125.374 257.859 125.31 258.162 125.245 258.465L125.315 257.669C125.244 257.971 125.173 258.272 125.103 258.574L125.188 257.784C125.111 258.085 125.034 258.386 124.957 258.687L125.057 257.905C124.974 258.205 124.891 258.505 124.807 258.805L124.922 258.032C124.833 258.331 124.743 258.63 124.654 258.93L124.783 258.167C124.687 258.466 124.591 258.764 124.495 259.063L124.638 258.313C124.536 258.61 124.434 258.908 124.332 259.205L124.486 258.469C124.378 258.766 124.27 259.063 124.162 259.36L124.328 258.637C124.214 258.933 124.1 259.229 123.986 259.525L124.161 258.819C124.041 259.115 123.921 259.41 123.801 259.705L123.986 259.016C123.86 259.31 123.735 259.605 123.609 259.899L123.802 259.228C123.67 259.521 123.538 259.815 123.407 260.108L123.607 259.455C123.469 259.748 123.332 260.041 123.195 260.334L123.401 259.7C123.258 259.992 123.115 260.284 122.972 260.576L123.182 259.962C123.034 260.253 122.885 260.544 122.737 260.836L122.951 260.241C122.798 260.532 122.644 260.822 122.49 261.113L122.707 260.539C122.548 260.829 122.389 261.119 122.229 261.409L122.448 260.855C122.284 261.144 122.12 261.433 121.955 261.723L122.175 261.189C122.006 261.478 121.836 261.767 121.667 262.055L121.886 261.543C121.712 261.831 121.538 262.119 121.363 262.407L121.582 261.915C121.403 262.202 121.224 262.489 121.045 262.777L121.261 262.306C121.077 262.592 120.893 262.879 120.71 263.166L120.923 262.715C120.735 263.001 120.547 263.288 120.359 263.574L120.569 263.143C120.376 263.429 120.184 263.714 119.991 264L120.197 263.591C120 263.876 119.803 264.16 119.607 264.445L119.808 264.055C119.607 264.34 119.406 264.624 119.205 264.909L119.401 264.539C119.196 264.823 118.991 265.107 118.786 265.391L118.976 265.041C118.768 265.324 118.559 265.607 118.351 265.891L118.534 265.56C118.322 265.843 118.11 266.126 117.897 266.409L118.074 266.097C117.858 266.38 117.642 266.662 117.427 266.945L117.596 266.652C117.377 266.934 117.158 267.216 116.939 267.498L117.1 267.224C116.878 267.506 116.656 267.787 116.434 268.069L116.587 267.813C116.362 268.095 116.137 268.376 115.913 268.657L116.056 268.42C115.829 268.701 115.601 268.981 115.374 269.262L115.509 269.043C115.279 269.323 115.049 269.604 114.819 269.884L114.944 269.683C114.712 269.963 114.48 270.243 114.248 270.523L114.363 270.339C114.129 270.619 113.895 270.899 113.66 271.179L113.766 271.012C113.53 271.292 113.293 271.572 113.057 271.851L113.153 271.702C112.915 271.981 112.677 272.261 112.439 272.54L112.524 272.408C112.285 272.687 112.045 272.966 111.805 273.245L111.881 273.13C111.64 273.409 111.399 273.688 111.158 273.967L111.222 273.868C110.98 274.147 110.738 274.426 110.495 274.705L110.549 274.623C110.306 274.902 110.063 275.181 109.82 275.459L109.863 275.395C109.619 275.673 109.375 275.952 109.131 276.231L109.163 276.183C108.918 276.461 108.674 276.74 108.429 277.018L108.45 276.987C108.205 277.266 107.96 277.544 107.715 277.823L107.725 277.808C107.48 278.087 107.235 278.365 106.989 278.644C106.742 278.925 106.497 279.204 106.252 279.482C106.25 279.487 106.241 279.498 106.239 279.502C105.994 279.781 105.749 280.059 105.505 280.338C105.501 280.346 105.484 280.367 105.48 280.375C105.236 280.653 104.991 280.932 104.747 281.211C104.741 281.222 104.716 281.254 104.71 281.266C104.467 281.544 104.223 281.823 103.979 282.101C103.972 282.117 103.939 282.158 103.931 282.174C103.688 282.452 103.446 282.731 103.203 283.01C103.193 283.029 103.153 283.081 103.143 283.1C102.901 283.379 102.659 283.658 102.418 283.937C102.406 283.96 102.358 284.022 102.347 284.046C102.106 284.325 101.865 284.604 101.625 284.883C101.612 284.91 101.555 284.982 101.542 285.01C101.303 285.289 101.064 285.568 100.825 285.847C100.81 285.879 100.745 285.962 100.731 285.993C100.493 286.273 100.255 286.552 100.018 286.831C100.001 286.867 99.9289 286.961 99.9125 286.996C99.6767 287.276 99.441 287.556 99.2053 287.835C99.1869 287.875 99.1065 287.98 99.0883 288.02C98.8546 288.3 98.6209 288.58 98.3871 288.86C98.367 288.904 98.2789 289.02 98.259 289.064C98.0275 289.345 97.796 289.625 97.5645 289.905C97.5427 289.953 97.4469 290.081 97.4254 290.129C97.1963 290.41 96.9672 290.691 96.7381 290.971C96.7147 291.024 96.611 291.164 96.5878 291.217C96.3613 291.498 96.1348 291.779 95.9082 292.06C95.8833 292.117 95.7721 292.269 95.7475 292.327C95.5237 292.608 95.2999 292.889 95.0762 293.171C95.0496 293.232 94.9308 293.398 94.9047 293.46C94.6839 293.741 94.4631 294.023 94.2422 294.305C94.2143 294.371 94.0883 294.549 94.0608 294.616C93.8431 294.898 93.6254 295.18 93.4077 295.462C93.3783 295.533 93.2452 295.724 93.2165 295.796C93.002 296.078 92.7876 296.361 92.5732 296.643C92.5425 296.72 92.4022 296.925 92.3722 297.001C92.1612 297.284 91.9503 297.567 91.7393 297.85C91.7075 297.931 91.5606 298.15 91.5295 298.232C91.3222 298.515 91.1149 298.799 90.9076 299.082C90.8746 299.168 90.7211 299.402 90.689 299.488C90.4855 299.772 90.2819 300.056 90.0784 300.341C90.0445 300.432 89.8849 300.68 89.8519 300.772C89.6524 301.056 89.4528 301.341 89.2532 301.625C89.2185 301.722 89.0531 301.985 89.0193 302.082C88.8239 302.367 88.6284 302.652 88.433 302.937C88.3974 303.039 88.2264 303.318 88.192 303.421C88.0009 303.706 87.8097 303.992 87.6185 304.278C87.5825 304.385 87.4065 304.679 87.3717 304.787C87.185 305.073 86.9982 305.36 86.8114 305.646C86.775 305.759 86.5942 306.07 86.5591 306.183C86.3769 306.47 86.1947 306.757 86.0125 307.044C85.9759 307.162 85.7911 307.489 85.756 307.608C85.5785 307.896 85.401 308.183 85.2235 308.471C85.1868 308.595 84.9983 308.939 84.9632 309.064C84.7906 309.352 84.6179 309.64 84.4452 309.928C84.4087 310.058 84.2173 310.419 84.1826 310.549C84.0149 310.838 83.8472 311.127 83.6795 311.416C83.6434 311.551 83.4496 311.929 83.4155 312.065C83.2529 312.355 83.0903 312.644 82.9276 312.934C82.8922 313.075 82.6967 313.471 82.6633 313.612C82.5059 313.902 82.3485 314.193 82.1911 314.483C82.1565 314.63 81.96 315.043 81.9277 315.19C81.7756 315.481 81.6235 315.772 81.4714 316.063C81.438 316.216 81.2413 316.646 81.2103 316.799C81.0636 317.091 80.917 317.382 80.7703 317.674C80.7382 317.832 80.5421 318.28 80.5126 318.439C80.3715 318.732 80.2304 319.024 80.0893 319.316C80.0589 319.48 79.8644 319.945 79.8367 320.109C79.7012 320.402 79.5658 320.696 79.4303 320.989C79.4017 321.158 79.2094 321.641 79.1838 321.811C79.054 322.104 78.9243 322.398 78.7946 322.692C78.7682 322.867 78.5792 323.366 78.5559 323.541C78.432 323.836 78.3081 324.131 78.1842 324.425C78.1603 324.605 77.9755 325.121 77.9549 325.301C77.8369 325.596 77.7189 325.892 77.6008 326.187C77.5797 326.371 77.3999 326.904 77.3822 327.089C77.2701 327.385 77.1581 327.681 77.0461 327.977C77.0279 328.166 76.8542 328.715 76.8396 328.904C76.7336 329.201 76.6276 329.498 76.5216 329.795C76.5067 329.989 76.34 330.552 76.3288 330.745C76.2289 331.043 76.129 331.341 76.0291 331.639C76.0177 331.836 75.8589 332.414 75.8513 332.611C75.7576 332.91 75.6639 333.209 75.5702 333.507C75.5625 333.709 75.4124 334.299 75.4087 334.501C75.3212 334.8 75.2337 335.1 75.1462 335.399C75.1425 335.604 75.002 336.207 75.0023 336.411C74.9211 336.712 74.8399 337.012 74.7587 337.312C74.759 337.52 74.6289 338.134 74.6335 338.342C74.5586 338.643 74.4836 338.944 74.4087 339.245C74.4134 339.455 74.2944 340.08 74.3033 340.29C74.2347 340.592 74.1662 340.894 74.0976 341.196C74.1066 341.408 73.9994 342.041 74.0128 342.253C73.9886 342.371 73.9644 342.489 73.9403 342.607C73.9022 342.792 73.8642 342.977 73.8262 343.162C73.8398 343.375 73.7449 344.017 73.7629 344.23C73.7071 344.534 73.6513 344.837 73.5955 345.141C73.6135 345.356 73.5316 346.003 73.5542 346.217C73.5047 346.522 73.4553 346.826 73.4059 347.131C73.4286 347.346 73.3599 347.998 73.3871 348.213C73.3441 348.519 73.3011 348.824 73.2581 349.129C73.2853 349.345 73.2301 350 73.2619 350.215C73.2253 350.521 73.1887 350.827 73.1522 351.134C73.184 351.349 73.1425 352.006 73.1788 352.22C73.1486 352.528 73.1184 352.835 73.0883 353.142C73.1246 353.356 73.0968 354.013 73.1376 354.227C73.1138 354.535 73.09 354.843 73.0663 355.151C73.1069 355.364 73.0929 356.02 73.138 356.231C73.1206 356.54 73.1032 356.849 73.0858 357.158C73.1307 357.369 73.1303 358.022 73.1795 358.232C73.1684 358.542 73.1574 358.852 73.1464 359.161C73.1953 359.37 73.2082 360.019 73.2613 360.226C73.2566 360.537 73.2519 360.848 73.2472 361.158C73.3 361.364 73.3259 362.008 73.3828 362.213C73.3844 362.524 73.386 362.835 73.3876 363.147C73.4439 363.35 73.4824 363.986 73.5428 364.188C73.5506 364.5 73.5585 364.812 73.5663 365.125C73.626 365.324 73.6766 365.952 73.7402 366.15C73.7542 366.463 73.7683 366.776 73.7823 367.09C73.8451 367.285 73.907 367.903 73.9735 368.098C73.9937 368.412 74.0139 368.725 74.0341 369.039C74.0996 369.231 74.1724 369.838 74.2415 370.028C74.2678 370.343 74.2941 370.658 74.3204 370.972C74.3884 371.159 74.4712 371.756 74.5428 371.942C74.5751 372.257 74.6074 372.573 74.6397 372.888C74.7099 373.07 74.802 373.654 74.8755 373.835C74.9138 374.151 74.952 374.467 74.9903 374.784C75.0623 374.961 75.1629 375.531 75.2381 375.707C75.2823 376.024 75.3264 376.341 75.3705 376.658C75.4441 376.83 75.5524 377.387 75.629 377.557C75.6789 377.875 75.7289 378.193 75.7788 378.511C75.8536 378.678 75.9688 379.219 76.0464 379.385C76.102 379.704 76.1577 380.022 76.2133 380.341C76.289 380.502 76.4102 381.028 76.4885 381.188C76.5497 381.508 76.611 381.827 76.6722 382.147C76.7485 382.302 76.8749 382.813 76.9537 382.967C77.0204 383.287 77.0872 383.608 77.1539 383.928Z" fill="url(#paint0_linear_280_2748)"/>
<path d="M294 219.633C297.314 219.633 300 222.319 300 225.633V226.902C300 231.081 304.175 233.98 308.235 232.992C322.434 229.536 337.419 230.616 351.752 239.098C378.909 255.168 386.462 287.603 382.119 317.181C377.7 347.276 360.729 379.021 332.479 399.666C308.711 417.035 284.625 421.63 264.995 421.315C263.197 421.287 261.471 422.02 260.251 423.342C252.779 431.438 244.425 438.708 235.344 445.002C232.952 446.66 234.09 450.633 237 450.633C245.284 450.633 252 457.349 252 465.633C252 473.917 245.284 480.633 237 480.633H60C51.7157 480.633 45 473.917 45 465.633C45 457.349 51.7157 450.633 60 450.633C63.748 450.633 65.2441 445.465 62.207 443.269C24.5216 416.021 0 371.691 0 321.633V225.633C0 222.319 2.68629 219.633 6 219.633H294ZM336.474 264.916C326.688 259.126 314.753 259.807 300.056 268.74C300.021 268.761 300 268.799 300 268.84V321.633C300 341.591 296.101 360.638 289.024 378.055C287.122 382.736 291.145 387.733 295.853 385.896C302.084 383.463 308.447 380.07 314.777 375.444C336.026 359.916 349.091 335.6 352.437 312.821C355.858 289.525 348.904 272.271 336.474 264.916Z" fill="url(#paint1_linear_280_2748)"/>
<path d="M294 219.633C297.314 219.633 300 222.319 300 225.633V226.902C300 231.081 304.175 233.98 308.235 232.992C322.434 229.536 337.419 230.616 351.752 239.098C378.909 255.168 386.462 287.603 382.119 317.181C377.7 347.276 360.729 379.021 332.479 399.666C308.711 417.035 284.625 421.63 264.995 421.315C263.197 421.287 261.471 422.02 260.251 423.342C252.779 431.438 244.425 438.708 235.344 445.002C232.952 446.66 234.09 450.633 237 450.633C245.284 450.633 252 457.349 252 465.633C252 473.917 245.284 480.633 237 480.633H60C51.7157 480.633 45 473.917 45 465.633C45 457.349 51.7157 450.633 60 450.633C63.748 450.633 65.2441 445.465 62.207 443.269C24.5216 416.021 0 371.691 0 321.633V225.633C0 222.319 2.68629 219.633 6 219.633H294ZM336.474 264.916C326.688 259.126 314.753 259.807 300.056 268.74C300.021 268.761 300 268.799 300 268.84V321.633C300 341.591 296.101 360.638 289.024 378.055C287.122 382.736 291.145 387.733 295.853 385.896C302.084 383.463 308.447 380.07 314.777 375.444C336.026 359.916 349.091 335.6 352.437 312.821C355.858 289.525 348.904 272.271 336.474 264.916Z" fill="url(#paint2_linear_280_2748)"/>
<circle opacity="0.2" cx="207" cy="291.633" r="42" fill="#192626"/>
<circle opacity="0.2" cx="81" cy="288.633" r="42" fill="#192626"/>
<circle cx="113.482" cy="228.67" r="9" transform="rotate(-19.4356 113.482 228.67)" fill="#0BB57F"/>
<circle cx="176.482" cy="228.67" r="9" transform="rotate(-19.4356 176.482 228.67)" fill="#0BB57F"/>
<path d="M161.5 212.688C169.872 198.188 188.072 199.188 195 211.188" stroke="#0BB57F" stroke-width="6.8388" stroke-linecap="round"/>
<path d="M164.5 255C156.128 269.5 137.928 268.5 131 256.5" stroke="#0BB57F" stroke-width="6.8388" stroke-linecap="round"/>
<path d="M129.5 212.688C121.128 198.188 102.928 199.188 96 211.188" stroke="#0BB57F" stroke-width="6.8388" stroke-linecap="round"/>
<path d="M261 218.657C266.555 213.991 280.031 208.757 289.5 225.157C301.336 245.657 269.5 291.157 270.5 311.657" stroke="#0BB57F" stroke-width="6.8388" stroke-linecap="round"/>
<rect x="252.056" y="308" width="40" height="54" rx="8" transform="rotate(6.43831 252.056 308)" fill="#0BB57F"/>
<path d="M258.659 355.659C263.998 357.084 269.93 355.707 274.119 351.518C278.307 347.33 281.083 339.999 279.659 334.659C274.32 333.235 266.989 336.011 262.8 340.2C258.641 344.36 257.254 350.238 258.63 355.548C259.571 353.844 260.93 352.04 262.629 350.341C264.347 348.623 266.171 347.254 267.891 346.313C266.949 348.033 265.58 349.857 263.863 351.574C262.158 353.279 260.347 354.639 258.637 355.58C258.644 355.606 258.652 355.633 258.659 355.659Z" fill="#007351"/>
<circle cx="259" cy="172" r="6" fill="#0BB57F" fill-opacity="0.5"/>
<circle cx="220" cy="198" r="3" fill="#0BB57F" fill-opacity="0.5"/>
<circle cx="42" cy="147" r="3" fill="#0BB57F" fill-opacity="0.5"/>
<circle cx="54" cy="201" r="3" fill="#0BB57F" fill-opacity="0.5"/>
<circle cx="234" cy="166" r="9.5" stroke="#0BB57F" stroke-opacity="0.5" stroke-width="3"/>
<circle cx="76" cy="172" r="9.5" stroke="#0BB57F" stroke-opacity="0.5" stroke-width="3"/>
<defs>
<linearGradient id="paint0_linear_280_2748" x1="144.5" y1="-8.52372e-07" x2="144.5" y2="366" gradientUnits="userSpaceOnUse">
<stop stop-color="#0BB57F" stop-opacity="0"/>
<stop offset="1" stop-color="#0BB57F"/>
</linearGradient>
<linearGradient id="paint1_linear_280_2748" x1="191.251" y1="219.633" x2="191.251" y2="480.633" gradientUnits="userSpaceOnUse">
<stop stop-color="#101113"/>
<stop offset="1" stop-color="#0A5F44"/>
</linearGradient>
<linearGradient id="paint2_linear_280_2748" x1="191.251" y1="219.633" x2="191.251" y2="480.633" gradientUnits="userSpaceOnUse">
<stop stop-color="#0A5F44"/>
<stop offset="1" stop-color="#223E35"/>
</linearGradient>
</defs>
</svg>
