<svg width="614" height="528" viewBox="0 0 614 528" fill="none" xmlns="http://www.w3.org/2000/svg">
<path opacity="0.2" d="M266.303 329.917C299.209 329.917 327.958 333.946 343.457 339.943C352.146 343.305 362.692 349.986 371.951 351.019C391.759 353.228 409.869 358.038 425.07 364.777C427.705 365.945 430.551 366.576 433.433 366.541C435.021 366.522 436.617 366.513 438.22 366.513C507.103 366.513 562.943 383.869 562.943 405.278C562.943 422.964 524.839 437.881 472.755 442.536C467.17 443.035 462.148 446.027 458.348 450.15C437.711 472.537 395.689 487.866 347.204 487.866C306.532 487.866 270.408 477.079 247.64 460.387C242.59 456.685 236.226 455.004 230.115 456.365C207.544 461.391 181.334 464.27 153.377 464.27C68.6693 464.27 0 437.858 0 405.278C0.000664662 372.699 68.6698 346.288 153.377 346.288C159.422 346.288 165.386 346.423 171.248 346.684C176.3 346.91 181.244 345.055 185.782 342.822C199.956 335.845 229.528 329.917 266.303 329.917Z" fill="#063F2E"/>
<path d="M428.195 41.4572C430.569 40.6193 433.174 41.8652 434.011 44.2397L438.141 55.9418C439.213 58.9799 443.019 59.9807 445.612 58.0682C459.164 48.0676 475.31 42.9643 493.55 46.5689C525.281 52.8398 544.389 81.8162 550.624 113.647C556.935 145.869 551.043 184.341 529.719 215.478C512.814 240.162 491.538 253.381 472.339 260.418C471.046 260.892 470.022 261.903 469.539 263.193C464.249 277.302 457.089 290.674 448.246 302.918C446.331 305.568 449.023 309.353 452.106 308.265C460.884 305.168 470.511 309.773 473.609 318.551C476.706 327.329 472.101 336.957 463.323 340.054L275.773 406.232C266.994 409.329 257.367 404.723 254.27 395.945C251.173 387.167 255.778 377.54 264.556 374.443C268.527 373.041 268.18 367.006 264.14 365.814C214.021 351.032 171.464 313.229 152.748 260.187L116.129 156.406C115.291 154.032 116.536 151.428 118.91 150.59L428.195 41.4572ZM489.131 68.933C475.42 66.2236 462.492 71.3974 450.567 84.0719C449.436 85.2745 449.106 87.0181 449.655 88.5753L470.631 148.02C479.474 173.081 482.036 198.834 479.143 223.562C478.698 227.362 482.704 230.145 485.853 227.971C494.707 221.859 503.348 213.639 510.91 202.598C528.511 176.898 533.484 144.736 528.253 118.028C522.946 90.9313 508.105 72.6829 489.131 68.933Z" fill="url(#paint0_linear_280_2747)"/>
<path opacity="0.2" d="M188.772 511.945C188.772 519.392 179.265 527.115 155.063 527.115C130.86 527.115 101.128 519.392 101.128 511.945C101.128 504.499 120.748 495.091 144.95 495.091C169.152 495.091 188.772 504.499 188.772 511.945Z" fill="#063F2E"/>
<circle cx="235.025" cy="209.711" r="10.1127" transform="rotate(-19.4356 235.025 209.711)" fill="#0BB57F"/>
<circle cx="302.8" cy="184.382" r="10.1127" transform="rotate(-19.4356 302.8 184.382)" fill="#0BB57F"/>
<path d="M321.526 87.6444C321.526 57.8571 375.461 0.000620895 375.461 0.000620895C375.461 0.000620895 429.396 57.8572 429.396 87.6444C429.396 117.432 405.248 141.579 375.461 141.579C345.674 141.579 321.526 117.432 321.526 87.6444Z" fill="#0BB57F"/>
<circle opacity="0.2" cx="358" cy="197" r="42" fill="#192626"/>
<path d="M294.955 238.903L330.35 205.193" stroke="#0BB57F" stroke-width="6.8388" stroke-linecap="round"/>
<defs>
<linearGradient id="paint0_linear_280_2747" x1="314.698" y1="81.505" x2="412.283" y2="358.064" gradientUnits="userSpaceOnUse">
<stop stop-color="#0A5F44"/>
<stop offset="1" stop-color="#223E35"/>
</linearGradient>
</defs>
</svg>
