<svg width="429" height="352" viewBox="0 0 429 352" fill="none" xmlns="http://www.w3.org/2000/svg">
<path opacity="0.5" d="M198.236 204.42C220.156 204.42 239.597 206.821 251.711 210.526C260.618 213.249 271.804 219.369 281.031 220.646C293.721 222.402 305.377 225.606 315.396 229.921C318.042 231.061 320.886 231.695 323.768 231.672C324.58 231.665 325.395 231.662 326.212 231.662C377.489 231.662 419.057 244.582 419.057 260.52C419.057 273.427 391.789 284.354 354.181 288.042C348.601 288.589 343.597 291.602 339.622 295.556C323.762 311.329 293.36 321.998 258.46 321.998C229.405 321.998 203.467 314.603 186.443 303.025C181.265 299.504 174.912 297.804 168.785 299.091C152.562 302.496 133.956 304.434 114.174 304.434C51.1177 304.434 0.000573611 284.773 0 260.521C0 236.268 51.1174 216.607 114.174 216.607C117.979 216.607 121.74 216.68 125.45 216.82C130.505 217.012 135.498 215.185 140.141 213.178C151.286 208.361 172.367 204.42 198.236 204.42Z" fill="#063F2E"/>
<path opacity="0.5" d="M140.057 339.85C140.057 345.431 133.006 351.219 115.057 351.219C97.1074 351.219 75.0566 345.431 75.0566 339.85C75.0566 334.269 89.6074 327.219 107.557 327.219C125.506 327.219 140.057 334.269 140.057 339.85Z" fill="#063F2E"/>
<path d="M339 9.05273C342.314 9.05273 345 11.739 345 15.0527V16.3223C345 20.5007 349.175 23.4004 353.235 22.4121C367.434 18.9556 382.419 20.0361 396.752 28.5176C423.909 44.5876 431.462 77.0231 427.119 106.601C422.7 136.696 405.729 168.441 377.479 189.086C353.711 206.455 329.625 211.05 309.995 210.735C308.197 210.707 306.471 211.44 305.251 212.762C297.779 220.858 289.425 228.128 280.344 234.422C277.952 236.079 279.09 240.053 282 240.053C290.284 240.053 297 246.768 297 255.053C297 263.337 290.284 270.053 282 270.053H105C96.7157 270.053 90 263.337 90 255.053C90 246.768 96.7157 240.053 105 240.053C108.748 240.053 110.244 234.885 107.207 232.688C69.5216 205.441 45 161.111 45 111.053V15.0527C45 11.739 47.6863 9.05273 51 9.05273H339ZM381.474 54.3359C371.688 48.5457 359.753 49.2267 345.056 58.1602C345.021 58.1812 345 58.2192 345 58.2598V111.053C345 131.011 341.101 150.057 334.024 167.475C332.122 172.156 336.145 177.153 340.853 175.315C347.084 172.883 353.447 169.49 359.777 164.864C381.026 149.336 394.091 125.02 397.437 102.241C400.858 78.9445 393.904 61.6913 381.474 54.3359Z" fill="url(#paint0_linear_188_5858)"/>
<path d="M339 9.05273C342.314 9.05273 345 11.739 345 15.0527V16.3223C345 20.5007 349.175 23.4004 353.235 22.4121C367.434 18.9556 382.419 20.0361 396.752 28.5176C423.909 44.5876 431.462 77.0231 427.119 106.601C422.7 136.696 405.729 168.441 377.479 189.086C353.711 206.455 329.625 211.05 309.995 210.735C308.197 210.707 306.471 211.44 305.251 212.762C297.779 220.858 289.425 228.128 280.344 234.422C277.952 236.079 279.09 240.053 282 240.053C290.284 240.053 297 246.768 297 255.053C297 263.337 290.284 270.053 282 270.053H105C96.7157 270.053 90 263.337 90 255.053C90 246.768 96.7157 240.053 105 240.053C108.748 240.053 110.244 234.885 107.207 232.688C69.5216 205.441 45 161.111 45 111.053V15.0527C45 11.739 47.6863 9.05273 51 9.05273H339ZM381.474 54.3359C371.688 48.5457 359.753 49.2267 345.056 58.1602C345.021 58.1812 345 58.2192 345 58.2598V111.053C345 131.011 341.101 150.057 334.024 167.475C332.122 172.156 336.145 177.153 340.853 175.315C347.084 172.883 353.447 169.49 359.777 164.864C381.026 149.336 394.091 125.02 397.437 102.241C400.858 78.9445 393.904 61.6913 381.474 54.3359Z" fill="url(#paint1_linear_188_5858)"/>
<circle opacity="0.2" cx="252" cy="81.0527" r="42" fill="#192626"/>
<circle opacity="0.2" cx="126" cy="78.0527" r="42" fill="#192626"/>
<circle cx="158.482" cy="40.9016" r="9" transform="rotate(-19.4356 158.482 40.9016)" fill="#0BB57F"/>
<circle cx="221.482" cy="40.9016" r="9" transform="rotate(-19.4356 221.482 40.9016)" fill="#0BB57F"/>
<path d="M306 8.07714C311.555 3.41047 325.031 -1.82286 334.5 14.5771C346.336 35.0771 314.5 80.5771 315.5 101.077" stroke="#0BB57F" stroke-width="6.8388" stroke-linecap="round"/>
<rect x="297.056" y="97.4199" width="40" height="54" rx="8" transform="rotate(6.43831 297.056 97.4199)" fill="#0BB57F"/>
<path d="M303.659 145.079C308.998 146.504 314.93 145.126 319.119 140.938C323.307 136.75 326.083 129.418 324.659 124.079C319.32 122.655 311.989 125.431 307.8 129.62C303.641 133.779 302.254 139.658 303.63 144.968C304.571 143.264 305.93 141.46 307.629 139.76C309.347 138.043 311.171 136.674 312.891 135.733C311.949 137.453 310.58 139.277 308.863 140.994C307.158 142.699 305.347 144.059 303.637 145C303.644 145.026 303.652 145.053 303.659 145.079Z" fill="#007351"/>
<path d="M182 65.9199C182 60.6732 186.253 56.4199 191.5 56.4199C196.747 56.4199 201 60.6732 201 65.9199V106.42C201 108.629 199.209 110.42 197 110.42H186C183.791 110.42 182 108.629 182 106.42V65.9199Z" fill="#0BB57F"/>
<defs>
<linearGradient id="paint0_linear_188_5858" x1="236.251" y1="9.05273" x2="236.251" y2="270.053" gradientUnits="userSpaceOnUse">
<stop stop-color="#101113"/>
<stop offset="1" stop-color="#0A5F44"/>
</linearGradient>
<linearGradient id="paint1_linear_188_5858" x1="236.251" y1="9.05273" x2="236.251" y2="270.053" gradientUnits="userSpaceOnUse">
<stop stop-color="#0A5F44"/>
<stop offset="1" stop-color="#223E35"/>
</linearGradient>
</defs>
</svg>
