<svg width="810" height="402" viewBox="0 0 810 402" fill="none" xmlns="http://www.w3.org/2000/svg">
<g opacity="0.3">
<path d="M3.00082 129.528L5.01585 128.808L7.03089 128.125L9.04593 127.479L11.061 126.871L13.076 126.302L15.091 125.773L17.1061 125.283L19.1211 124.833L21.1362 124.424L23.1512 124.057L25.1662 123.731L27.1813 123.447L29.1963 123.205L31.2113 123.005L33.2264 122.848L35.2414 122.733L37.2565 122.662L39.2715 122.633L41.2865 122.647L43.3016 122.704L45.3166 122.804L47.3316 122.947L49.3467 123.132L51.3617 123.36L53.3768 123.63L55.3918 123.942L57.4068 124.296L59.4219 124.69L61.4369 125.126L63.4519 125.603L65.467 126.119L67.482 126.674L69.4971 127.269L71.5121 127.902L73.5271 128.573L75.5422 129.281L77.5572 130.025L79.5722 130.805L81.5873 131.62L83.6023 132.468L85.6174 133.35L87.6324 134.265L89.6474 135.21L91.6625 136.187L93.6775 137.192L95.6925 138.227L97.7076 139.289L99.7226 140.377L101.738 141.491L103.753 142.629L105.768 143.791L107.783 144.974L109.798 146.178L111.813 147.402L113.828 148.645L115.843 149.905L117.858 151.18L119.873 152.471L121.888 153.775L123.903 155.091L125.918 156.418L127.933 157.755L129.948 159.1L131.963 160.452L133.978 161.809L135.993 163.171L138.008 164.536L140.023 165.902L142.038 167.268L144.053 168.634L146.068 169.997L148.084 171.356L150.099 172.71L152.114 174.057L154.129 175.397L156.144 176.727L158.159 178.047L160.174 179.355L162.189 180.651L164.204 181.931L166.219 183.197L168.234 184.445L170.249 185.676L172.264 186.887L174.279 188.077L176.294 189.246L178.309 190.392L180.324 191.515L182.339 192.612L184.354 193.683L186.369 194.727L188.384 195.742L190.399 196.729L192.414 197.685L194.429 198.61L196.444 199.503L198.459 200.363L200.474 201.189L202.49 201.981L204.505 202.737L206.52 203.458L208.535 204.141L210.55 204.787L212.565 205.394L214.58 205.963L216.595 206.493L218.61 206.983L220.625 207.432L222.64 207.841L224.655 208.209L226.67 208.535L228.685 208.819L230.7 209.061L232.715 209.261L234.73 209.418L236.745 209.532L238.76 209.604L240.775 209.633L242.79 209.619L244.805 209.561L246.82 209.461L248.835 209.319L250.85 209.133L252.865 208.906L254.881 208.636L256.896 208.324L258.911 207.97L260.926 207.575L262.941 207.139L264.956 206.663L266.971 206.147L268.986 205.591L271.001 204.996L273.016 204.363L275.031 203.693L277.046 202.985L279.061 202.241L281.076 201.461L283.091 200.646L285.106 199.797L287.121 198.915L289.136 198.001L291.151 197.055L293.166 196.079L295.181 195.073L297.196 194.039L299.211 192.977L301.226 191.888L303.241 190.774L305.256 189.636L307.271 188.475L309.287 187.291L311.302 186.087L313.317 184.863L315.332 183.621L317.347 182.361L319.362 181.085L321.377 179.795L323.392 178.491L325.407 177.175L327.422 175.847L329.437 174.511L331.452 173.166L333.467 171.814L335.482 170.456L337.497 169.095L339.512 167.73L341.527 166.364L343.542 164.997L345.557 163.632L347.572 162.269L349.587 160.91L351.602 159.556L353.617 158.209L355.632 156.869L357.647 155.539L359.662 154.218L361.677 152.91L363.693 151.615L365.708 150.334L367.723 149.069L369.738 147.82L371.753 146.59L373.768 145.379L375.783 144.188L377.798 143.019L379.813 141.873L381.828 140.751L383.843 139.654L385.858 138.583L387.873 137.539L389.888 136.523L391.903 135.537L393.918 134.581L395.933 133.656L397.948 132.763L399.963 131.903L401.978 131.076L403.993 130.285L406.008 129.528L408.023 128.808L410.038 128.125L412.053 127.479L414.068 126.871L416.084 126.302L418.099 125.773L420.114 125.283L422.129 124.833L424.144 124.424L426.159 124.057L428.174 123.731L430.189 123.447L432.204 123.205L434.219 123.005L436.234 122.848L438.249 122.733L440.264 122.662L442.279 122.633L444.294 122.647L446.309 122.704L448.324 122.804L450.339 122.947L452.354 123.132L454.369 123.36L456.384 123.63L458.399 123.942L460.414 124.296L462.429 124.69L464.444 125.126L466.459 125.603L468.474 126.119L470.49 126.674L472.505 127.269L474.52 127.902L476.535 128.573L478.55 129.281L480.565 130.025L482.58 130.805L484.595 131.62L486.61 132.468L488.625 133.35L490.64 134.265L492.655 135.21L494.67 136.187L496.685 137.192L498.7 138.227L500.715 139.289L502.73 140.377L504.745 141.491L506.76 142.629L508.775 143.791L510.79 144.974L512.805 146.178L514.82 147.402L516.835 148.645L518.85 149.905L520.865 151.18L522.881 152.471L524.896 153.775L526.911 155.091L528.926 156.418L530.941 157.755L532.956 159.1L534.971 160.452L536.986 161.809L539.001 163.171L541.016 164.536L543.031 165.902L545.046 167.268L547.061 168.634L549.076 169.997L551.091 171.356L553.106 172.71L555.121 174.057L557.136 175.397L559.151 176.727L561.166 178.047L563.181 179.355L565.196 180.651L567.211 181.931L569.226 183.197L571.241 184.445L573.256 185.676L575.271 186.887L577.287 188.077L579.302 189.246L581.317 190.392L583.332 191.515L585.347 192.612L587.362 193.683L589.377 194.727L591.392 195.742L593.407 196.729L595.422 197.685L597.437 198.61L599.452 199.503L601.467 200.363L603.482 201.189L605.497 201.981L607.512 202.737L609.527 203.458L611.542 204.141L613.557 204.787L615.572 205.394L617.587 205.963L619.602 206.493L621.617 206.983L623.632 207.432L625.647 207.841L627.662 208.209L629.677 208.535L631.693 208.819L633.708 209.061L635.723 209.261L637.738 209.418L639.753 209.532L641.768 209.604L643.783 209.633L645.798 209.619L647.813 209.561L649.828 209.461L651.843 209.319L653.858 209.133L655.873 208.906L657.888 208.636L659.903 208.324L661.918 207.97L663.933 207.575L665.948 207.139L667.963 206.663L669.978 206.147L671.993 205.591L674.008 204.996L676.023 204.363L678.038 203.693L680.053 202.985L682.068 202.241L684.084 201.461L686.099 200.646L688.114 199.797L690.129 198.915L692.144 198.001L694.159 197.055L696.174 196.079L698.189 195.073L700.204 194.039L702.219 192.977L704.234 191.888L706.249 190.774L708.264 189.636L710.279 188.475L712.294 187.291L714.309 186.087L716.324 184.863L718.339 183.621L720.354 182.361L722.369 181.085L724.384 179.795L726.399 178.491L728.414 177.175L730.429 175.847L732.444 174.511L734.459 173.166L736.474 171.814L738.49 170.456L740.505 169.095L742.52 167.73L744.535 166.364L746.55 164.997L748.565 163.632L750.58 162.269L752.595 160.91L754.61 159.556L756.625 158.209L758.64 156.869L760.655 155.539L762.67 154.218L764.685 152.91L766.7 151.615L768.715 150.334L770.73 149.069L772.745 147.82L774.76 146.59L776.775 145.379L778.79 144.188L780.805 143.019L782.82 141.873L784.835 140.751L786.85 139.654L788.865 138.583L790.88 137.539L792.896 136.523L794.911 135.537L796.926 134.581L798.941 133.656L800.956 132.763L802.971 131.903L804.986 131.076L807.001 130.285" stroke="#0BB57F" stroke-width="6" stroke-miterlimit="10" stroke-linecap="round" stroke-linejoin="round"/>
<path d="M3.00082 165.291L5.01585 164.595L7.03089 163.935L9.04593 163.312L11.061 162.725L13.076 162.176L15.091 161.664L17.1061 161.191L19.1211 160.757L21.1362 160.363L23.1512 160.008L25.1662 159.693L27.1813 159.419L29.1963 159.185L31.2113 158.992L33.2264 158.84L35.2414 158.73L37.2565 158.661L39.2715 158.633L41.2865 158.647L43.3016 158.702L45.3166 158.798L47.3316 158.936L49.3467 159.115L51.3617 159.335L53.3768 159.596L55.3918 159.897L57.4068 160.238L59.4219 160.62L61.4369 161.04L63.4519 161.5L65.467 161.999L67.482 162.535L69.4971 163.109L71.5121 163.721L73.5271 164.368L75.5422 165.052L77.5572 165.77L79.5722 166.523L81.5873 167.31L83.6023 168.129L85.6174 168.981L87.6324 169.863L89.6474 170.777L91.6625 171.719L93.6775 172.69L95.6925 173.689L97.7076 174.715L99.7226 175.765L101.738 176.841L103.753 177.94L105.768 179.061L107.783 180.204L109.798 181.367L111.813 182.548L113.828 183.748L115.843 184.964L117.858 186.196L119.873 187.442L121.888 188.701L123.903 189.972L125.918 191.253L127.933 192.544L129.948 193.842L131.963 195.148L133.978 196.458L135.993 197.773L138.008 199.091L140.023 200.41L142.038 201.729L144.053 203.047L146.068 204.363L148.084 205.676L150.099 206.983L152.114 208.284L154.129 209.577L156.144 210.862L158.159 212.136L160.174 213.399L162.189 214.65L164.204 215.887L166.219 217.108L168.234 218.314L170.249 219.502L172.264 220.671L174.279 221.821L176.294 222.949L178.309 224.056L180.324 225.139L182.339 226.199L184.354 227.233L186.369 228.241L188.384 229.221L190.399 230.174L192.414 231.097L194.429 231.99L196.444 232.852L198.459 233.683L200.474 234.48L202.49 235.245L204.505 235.975L206.52 236.67L208.535 237.33L210.55 237.954L212.565 238.541L214.58 239.09L216.595 239.601L218.61 240.074L220.625 240.508L222.64 240.903L224.655 241.258L226.67 241.573L228.685 241.847L230.7 242.081L232.715 242.274L234.73 242.425L236.745 242.536L238.76 242.605L240.775 242.633L242.79 242.619L244.805 242.564L246.82 242.467L248.835 242.33L250.85 242.151L252.865 241.931L254.881 241.67L256.896 241.369L258.911 241.027L260.926 240.646L262.941 240.225L264.956 239.766L266.971 239.267L268.986 238.731L271.001 238.156L273.016 237.545L275.031 236.898L277.046 236.214L279.061 235.496L281.076 234.743L283.091 233.956L285.106 233.137L287.121 232.285L289.136 231.402L291.151 230.489L293.166 229.546L295.181 228.575L297.196 227.576L299.211 226.551L301.226 225.5L303.241 224.425L305.256 223.326L307.271 222.204L309.287 221.062L311.302 219.899L313.317 218.717L315.332 217.518L317.347 216.301L319.362 215.07L321.377 213.824L323.392 212.565L325.407 211.294L327.422 210.012L329.437 208.722L331.452 207.423L333.467 206.118L335.482 204.807L337.497 203.493L339.512 202.175L341.527 200.856L343.542 199.536L345.557 198.218L347.572 196.902L349.587 195.59L351.602 194.283L353.617 192.982L355.632 191.688L357.647 190.404L359.662 189.129L361.677 187.866L363.693 186.616L365.708 185.379L367.723 184.157L369.738 182.952L371.753 181.764L373.768 180.595L375.783 179.445L377.798 178.316L379.813 177.21L381.828 176.126L383.843 175.067L385.858 174.033L387.873 173.025L389.888 172.044L391.903 171.092L393.918 170.169L395.933 169.276L397.948 168.413L399.963 167.583L401.978 166.785L403.993 166.021L406.008 165.291L408.023 164.595L410.038 163.935L412.053 163.312L414.068 162.725L416.084 162.176L418.099 161.664L420.114 161.191L422.129 160.757L424.144 160.363L426.159 160.008L428.174 159.693L430.189 159.419L432.204 159.185L434.219 158.992L436.234 158.84L438.249 158.73L440.264 158.661L442.279 158.633L444.294 158.647L446.309 158.702L448.324 158.798L450.339 158.936L452.354 159.115L454.369 159.335L456.384 159.596L458.399 159.897L460.414 160.238L462.429 160.62L464.444 161.04L466.459 161.5L468.474 161.999L470.49 162.535L472.505 163.109L474.52 163.721L476.535 164.368L478.55 165.052L480.565 165.77L482.58 166.523L484.595 167.31L486.61 168.129L488.625 168.981L490.64 169.863L492.655 170.777L494.67 171.719L496.685 172.69L498.7 173.689L500.715 174.715L502.73 175.765L504.745 176.841L506.76 177.94L508.775 179.061L510.79 180.204L512.805 181.367L514.82 182.548L516.835 183.748L518.85 184.964L520.865 186.196L522.881 187.442L524.896 188.701L526.911 189.972L528.926 191.253L530.941 192.544L532.956 193.842L534.971 195.148L536.986 196.458L539.001 197.773L541.016 199.091L543.031 200.41L545.046 201.729L547.061 203.047L549.076 204.363L551.091 205.676L553.106 206.983L555.121 208.284L557.136 209.577L559.151 210.862L561.166 212.136L563.181 213.399L565.196 214.65L567.211 215.887L569.226 217.108L571.241 218.314L573.256 219.502L575.271 220.671L577.287 221.821L579.302 222.949L581.317 224.056L583.332 225.139L585.347 226.199L587.362 227.233L589.377 228.241L591.392 229.221L593.407 230.174L595.422 231.097L597.437 231.99L599.452 232.852L601.467 233.683L603.482 234.48L605.497 235.245L607.512 235.975L609.527 236.67L611.542 237.33L613.557 237.954L615.572 238.541L617.587 239.09L619.602 239.601L621.617 240.074L623.632 240.508L625.647 240.903L627.662 241.258L629.677 241.573L631.693 241.847L633.708 242.081L635.723 242.274L637.738 242.425L639.753 242.536L641.768 242.605L643.783 242.633L645.798 242.619L647.813 242.564L649.828 242.467L651.843 242.33L653.858 242.151L655.873 241.931L657.888 241.67L659.903 241.369L661.918 241.027L663.933 240.646L665.948 240.225L667.963 239.766L669.978 239.267L671.993 238.731L674.008 238.156L676.023 237.545L678.038 236.898L680.053 236.214L682.068 235.496L684.084 234.743L686.099 233.956L688.114 233.137L690.129 232.285L692.144 231.402L694.159 230.489L696.174 229.546L698.189 228.575L700.204 227.576L702.219 226.551L704.234 225.5L706.249 224.425L708.264 223.326L710.279 222.204L712.294 221.062L714.309 219.899L716.324 218.717L718.339 217.518L720.354 216.301L722.369 215.07L724.384 213.824L726.399 212.565L728.414 211.294L730.429 210.012L732.444 208.722L734.459 207.423L736.474 206.118L738.49 204.807L740.505 203.493L742.52 202.175L744.535 200.856L746.55 199.536L748.565 198.218L750.58 196.902L752.595 195.59L754.61 194.283L756.625 192.982L758.64 191.688L760.655 190.404L762.67 189.129L764.685 187.866L766.7 186.616L768.715 185.379L770.73 184.157L772.745 182.952L774.76 181.764L776.775 180.595L778.79 179.445L780.805 178.316L782.82 177.21L784.835 176.126L786.85 175.067L788.865 174.033L790.88 173.025L792.896 172.044L794.911 171.092L796.926 170.169L798.941 169.276L800.956 168.413L802.971 167.583L804.986 166.785L807.001 166.021" stroke="#0BB57F" stroke-width="6" stroke-miterlimit="10" stroke-linecap="round" stroke-linejoin="round"/>
<path d="M3.00082 201.291L5.01585 200.595L7.03089 199.935L9.04593 199.312L11.061 198.725L13.076 198.176L15.091 197.664L17.1061 197.191L19.1211 196.757L21.1362 196.363L23.1512 196.008L25.1662 195.693L27.1813 195.419L29.1963 195.185L31.2113 194.992L33.2264 194.84L35.2414 194.73L37.2565 194.661L39.2715 194.633L41.2865 194.647L43.3016 194.702L45.3166 194.798L47.3316 194.936L49.3467 195.115L51.3617 195.335L53.3768 195.596L55.3918 195.897L57.4068 196.238L59.4219 196.62L61.4369 197.04L63.4519 197.5L65.467 197.999L67.482 198.535L69.4971 199.109L71.5121 199.721L73.5271 200.368L75.5422 201.052L77.5572 201.77L79.5722 202.523L81.5873 203.31L83.6023 204.129L85.6174 204.981L87.6324 205.863L89.6474 206.777L91.6625 207.719L93.6775 208.69L95.6925 209.689L97.7076 210.715L99.7226 211.765L101.738 212.841L103.753 213.94L105.768 215.061L107.783 216.204L109.798 217.367L111.813 218.548L113.828 219.748L115.843 220.964L117.858 222.196L119.873 223.442L121.888 224.701L123.903 225.972L125.918 227.253L127.933 228.544L129.948 229.842L131.963 231.148L133.978 232.458L135.993 233.773L138.008 235.091L140.023 236.41L142.038 237.729L144.053 239.047L146.068 240.363L148.084 241.676L150.099 242.983L152.114 244.284L154.129 245.577L156.144 246.862L158.159 248.136L160.174 249.399L162.189 250.65L164.204 251.887L166.219 253.108L168.234 254.314L170.249 255.502L172.264 256.671L174.279 257.821L176.294 258.949L178.309 260.056L180.324 261.139L182.339 262.199L184.354 263.233L186.369 264.241L188.384 265.221L190.399 266.174L192.414 267.097L194.429 267.99L196.444 268.852L198.459 269.683L200.474 270.48L202.49 271.245L204.505 271.975L206.52 272.67L208.535 273.33L210.55 273.954L212.565 274.541L214.58 275.09L216.595 275.601L218.61 276.074L220.625 276.508L222.64 276.903L224.655 277.258L226.67 277.573L228.685 277.847L230.7 278.081L232.715 278.274L234.73 278.425L236.745 278.536L238.76 278.605L240.775 278.633L242.79 278.619L244.805 278.564L246.82 278.467L248.835 278.33L250.85 278.151L252.865 277.931L254.881 277.67L256.896 277.369L258.911 277.027L260.926 276.646L262.941 276.225L264.956 275.766L266.971 275.267L268.986 274.731L271.001 274.156L273.016 273.545L275.031 272.898L277.046 272.214L279.061 271.496L281.076 270.743L283.091 269.956L285.106 269.137L287.121 268.285L289.136 267.402L291.151 266.489L293.166 265.546L295.181 264.575L297.196 263.576L299.211 262.551L301.226 261.5L303.241 260.425L305.256 259.326L307.271 258.204L309.287 257.062L311.302 255.899L313.317 254.717L315.332 253.518L317.347 252.301L319.362 251.07L321.377 249.824L323.392 248.565L325.407 247.294L327.422 246.012L329.437 244.722L331.452 243.423L333.467 242.118L335.482 240.807L337.497 239.493L339.512 238.175L341.527 236.856L343.542 235.536L345.557 234.218L347.572 232.902L349.587 231.59L351.602 230.283L353.617 228.982L355.632 227.688L357.647 226.404L359.662 225.129L361.677 223.866L363.693 222.616L365.708 221.379L367.723 220.157L369.738 218.952L371.753 217.764L373.768 216.595L375.783 215.445L377.798 214.316L379.813 213.21L381.828 212.126L383.843 211.067L385.858 210.033L387.873 209.025L389.888 208.044L391.903 207.092L393.918 206.169L395.933 205.276L397.948 204.413L399.963 203.583L401.978 202.785L403.993 202.021L406.008 201.291L408.023 200.595L410.038 199.935L412.053 199.312L414.068 198.725L416.084 198.176L418.099 197.664L420.114 197.191L422.129 196.757L424.144 196.363L426.159 196.008L428.174 195.693L430.189 195.419L432.204 195.185L434.219 194.992L436.234 194.84L438.249 194.73L440.264 194.661L442.279 194.633L444.294 194.647L446.309 194.702L448.324 194.798L450.339 194.936L452.354 195.115L454.369 195.335L456.384 195.596L458.399 195.897L460.414 196.238L462.429 196.62L464.444 197.04L466.459 197.5L468.474 197.999L470.49 198.535L472.505 199.109L474.52 199.721L476.535 200.368L478.55 201.052L480.565 201.77L482.58 202.523L484.595 203.31L486.61 204.129L488.625 204.981L490.64 205.863L492.655 206.777L494.67 207.719L496.685 208.69L498.7 209.689L500.715 210.715L502.73 211.765L504.745 212.841L506.76 213.94L508.775 215.061L510.79 216.204L512.805 217.367L514.82 218.548L516.835 219.748L518.85 220.964L520.865 222.196L522.881 223.442L524.896 224.701L526.911 225.972L528.926 227.253L530.941 228.544L532.956 229.842L534.971 231.148L536.986 232.458L539.001 233.773L541.016 235.091L543.031 236.41L545.046 237.729L547.061 239.047L549.076 240.363L551.091 241.676L553.106 242.983L555.121 244.284L557.136 245.577L559.151 246.862L561.166 248.136L563.181 249.399L565.196 250.65L567.211 251.887L569.226 253.108L571.241 254.314L573.256 255.502L575.271 256.671L577.287 257.821L579.302 258.949L581.317 260.056L583.332 261.139L585.347 262.199L587.362 263.233L589.377 264.241L591.392 265.221L593.407 266.174L595.422 267.097L597.437 267.99L599.452 268.852L601.467 269.683L603.482 270.48L605.497 271.245L607.512 271.975L609.527 272.67L611.542 273.33L613.557 273.954L615.572 274.541L617.587 275.09L619.602 275.601L621.617 276.074L623.632 276.508L625.647 276.903L627.662 277.258L629.677 277.573L631.693 277.847L633.708 278.081L635.723 278.274L637.738 278.425L639.753 278.536L641.768 278.605L643.783 278.633L645.798 278.619L647.813 278.564L649.828 278.467L651.843 278.33L653.858 278.151L655.873 277.931L657.888 277.67L659.903 277.369L661.918 277.027L663.933 276.646L665.948 276.225L667.963 275.766L669.978 275.267L671.993 274.731L674.008 274.156L676.023 273.545L678.038 272.898L680.053 272.214L682.068 271.496L684.084 270.743L686.099 269.956L688.114 269.137L690.129 268.285L692.144 267.402L694.159 266.489L696.174 265.546L698.189 264.575L700.204 263.576L702.219 262.551L704.234 261.5L706.249 260.425L708.264 259.326L710.279 258.204L712.294 257.062L714.309 255.899L716.324 254.717L718.339 253.518L720.354 252.301L722.369 251.07L724.384 249.824L726.399 248.565L728.414 247.294L730.429 246.012L732.444 244.722L734.459 243.423L736.474 242.118L738.49 240.807L740.505 239.493L742.52 238.175L744.535 236.856L746.55 235.536L748.565 234.218L750.58 232.902L752.595 231.59L754.61 230.283L756.625 228.982L758.64 227.688L760.655 226.404L762.67 225.129L764.685 223.866L766.7 222.616L768.715 221.379L770.73 220.157L772.745 218.952L774.76 217.764L776.775 216.595L778.79 215.445L780.805 214.316L782.82 213.21L784.835 212.126L786.85 211.067L788.865 210.033L790.88 209.025L792.896 208.044L794.911 207.092L796.926 206.169L798.941 205.276L800.956 204.413L802.971 203.583L804.986 202.785L807.001 202.021" stroke="#0BB57F" stroke-width="6" stroke-miterlimit="10" stroke-linecap="round" stroke-linejoin="round"/>
</g>
<path d="M540.001 140.633C543.315 140.633 546.001 143.319 546.001 146.633V147.902C546.001 152.081 550.176 154.98 554.236 153.992C568.435 150.536 583.419 151.616 597.753 160.098C624.91 176.168 632.463 208.603 628.12 238.181C623.7 268.276 606.73 300.021 578.479 320.666C554.712 338.035 530.625 342.63 510.996 342.315C509.198 342.287 507.472 343.02 506.252 344.342C498.779 352.438 490.426 359.708 481.345 366.002C478.953 367.66 480.091 371.633 483.001 371.633C491.285 371.633 498.001 378.349 498.001 386.633C498.001 394.917 491.285 401.633 483.001 401.633H306.001C297.717 401.633 291.001 394.917 291.001 386.633C291.001 378.349 297.717 371.633 306.001 371.633C309.749 371.633 311.245 366.465 308.208 364.269C270.522 337.021 246.001 292.691 246.001 242.633V146.633C246.001 143.319 248.687 140.633 252.001 140.633H540.001ZM582.474 185.916C572.689 180.126 560.754 180.807 546.056 189.74C546.022 189.761 546.001 189.799 546.001 189.84V242.633C546.001 262.591 542.102 281.638 535.025 299.055C533.123 303.736 537.146 308.733 541.853 306.896C548.085 304.463 554.448 301.07 560.778 296.444C582.027 280.916 595.092 256.6 598.437 233.821C601.858 210.525 594.905 193.271 582.474 185.916Z" fill="url(#paint0_linear_280_2746)"/>
<path d="M540.001 140.633C543.315 140.633 546.001 143.319 546.001 146.633V147.902C546.001 152.081 550.176 154.98 554.236 153.992C568.435 150.536 583.419 151.616 597.753 160.098C624.91 176.168 632.463 208.603 628.12 238.181C623.7 268.276 606.73 300.021 578.479 320.666C554.712 338.035 530.625 342.63 510.996 342.315C509.198 342.287 507.472 343.02 506.252 344.342C498.779 352.438 490.426 359.708 481.345 366.002C478.953 367.66 480.091 371.633 483.001 371.633C491.285 371.633 498.001 378.349 498.001 386.633C498.001 394.917 491.285 401.633 483.001 401.633H306.001C297.717 401.633 291.001 394.917 291.001 386.633C291.001 378.349 297.717 371.633 306.001 371.633C309.749 371.633 311.245 366.465 308.208 364.269C270.522 337.021 246.001 292.691 246.001 242.633V146.633C246.001 143.319 248.687 140.633 252.001 140.633H540.001ZM582.474 185.916C572.689 180.126 560.754 180.807 546.056 189.74C546.022 189.761 546.001 189.799 546.001 189.84V242.633C546.001 262.591 542.102 281.638 535.025 299.055C533.123 303.736 537.146 308.733 541.853 306.896C548.085 304.463 554.448 301.07 560.778 296.444C582.027 280.916 595.092 256.6 598.437 233.821C601.858 210.525 594.905 193.271 582.474 185.916Z" fill="url(#paint1_linear_280_2746)"/>
<path d="M358.429 118.061C352.118 94.4155 358.219 68.1476 376.768 49.5974C395.317 31.0488 427.783 18.7541 451.428 25.0622C457.736 48.7067 445.441 81.173 426.892 99.7216C408.47 118.143 382.437 124.285 358.92 118.188C366.468 114.025 374.456 108.006 381.983 100.479C389.589 92.8731 395.652 84.7964 399.82 77.179C392.202 81.3468 384.126 87.4101 376.52 95.0157C368.968 102.567 362.945 110.588 358.78 118.158C358.663 118.127 358.546 118.092 358.429 118.061Z" fill="#0BB57F"/>
<circle opacity="0.2" cx="453.001" cy="212.633" r="42" fill="#192626"/>
<circle opacity="0.2" cx="327.001" cy="209.633" r="42" fill="#192626"/>
<path d="M410.07 203.634C414.325 203.634 417.138 207.969 414.417 211.242C409.13 217.601 401.16 221.649 392.244 221.649C383.328 221.649 375.357 217.601 370.07 211.242C367.35 207.969 370.162 203.634 374.417 203.634H410.07Z" fill="#0BB57F"/>
<circle cx="359.483" cy="182.114" r="9" transform="rotate(-19.4356 359.483 182.114)" fill="#0BB57F"/>
<circle cx="422.483" cy="182.114" r="9" transform="rotate(-19.4356 422.483 182.114)" fill="#0BB57F"/>
<defs>
<linearGradient id="paint0_linear_280_2746" x1="437.252" y1="140.633" x2="437.252" y2="401.633" gradientUnits="userSpaceOnUse">
<stop stop-color="#101113"/>
<stop offset="1" stop-color="#0A5F44"/>
</linearGradient>
<linearGradient id="paint1_linear_280_2746" x1="437.252" y1="140.633" x2="437.252" y2="401.633" gradientUnits="userSpaceOnUse">
<stop stop-color="#0A5F44"/>
<stop offset="1" stop-color="#223E35"/>
</linearGradient>
</defs>
</svg>
